<?xml version="1.0" encoding="UTF-8" standalone="no"?>
<!-- Created with Inkscape (http://www.inkscape.org/) -->
<svg
   xmlns:dc="http://purl.org/dc/elements/1.1/"
   xmlns:cc="http://web.resource.org/cc/"
   xmlns:rdf="http://www.w3.org/1999/02/22-rdf-syntax-ns#"
   xmlns:svg="http://www.w3.org/2000/svg"
   xmlns="http://www.w3.org/2000/svg"
   xmlns:sodipodi="http://sodipodi.sourceforge.net/DTD/sodipodi-0.dtd"
   xmlns:inkscape="http://www.inkscape.org/namespaces/inkscape"
   width="271.27286"
   height="182.06335"
   id="svg2"
   sodipodi:version="0.32"
   inkscape:version="0.45.1"
   sodipodi:docbase="D:\Inkscape Grafiken"
   sodipodi:docname="hamster.svg"
   inkscape:output_extension="org.inkscape.output.svg.inkscape"
   version="1.0">
  <sodipodi:namedview
     id="base"
     pagecolor="#ffffff"
     bordercolor="#666666"
     borderopacity="1.0"
     inkscape:pageopacity="0.0"
     inkscape:pageshadow="2"
     inkscape:zoom="3.0319116"
     inkscape:cx="135.63643"
     inkscape:cy="91.031677"
     inkscape:document-units="px"
     inkscape:current-layer="layer1"
     showguides="true"
     inkscape:guide-bbox="true"
     inkscape:window-width="1280"
     inkscape:window-height="753"
     inkscape:window-x="-4"
     inkscape:window-y="-4"
     width="1052.3622px"
     height="744.09448px" />
  <defs
     id="defs4" />
  <metadata
     id="metadata7">
    <rdf:RDF>
      <cc:Work
         rdf:about="">
        <dc:format>image/svg+xml</dc:format>
        <dc:type
           rdf:resource="http://purl.org/dc/dcmitype/StillImage" />
      </cc:Work>
    </rdf:RDF>
  </metadata>
  <g
     inkscape:label="Ebene 1"
     id="layer1"
     inkscape:groupmode="layer"
     transform="translate(-13.991293,-29.024132)">
    <g
       id="g3343"
       transform="matrix(2.2923779,0,0,2.2923779,566.41221,68.236571)"
       inkscape:export-filename="D:\Inkscape Grafiken\Wong\200.png"
       inkscape:export-xdpi="228.16217"
       inkscape:export-ydpi="228.16217">
      <path
         sodipodi:nodetypes="ccccsscccccccccccccccccscssccccccccccccccsscccccccssssscsssssccccccccccccsccccccccccsssssccssssccsssc"
         id="path17261"
         d="M -207.26383,-16.721107 C -203.0334,-14.36699 -201.53194,-8.0689768 -201.76383,-4.7211068 C -202.14146,0.082168155 -203.02115,6.0509472 -206.26383,9.5601432 C -208.42566,10.309356 -217.68379,9.7133412 -221.11539,14.372642 C -220.41611,14.512986 -215.42967,14.479373 -215.17008,14.872643 C -214.77093,15.477362 -215.4675,15.935656 -215.82633,16.403893 C -218.88249,20.391867 -223.85426,30.792691 -222.60758,38.091393 C -222.10852,37.749029 -219.52926,32.902788 -218.98258,33.185143 C -217.95439,39.259551 -216.76126,46.213543 -212.35758,51.185143 C -212.25844,51.009333 -210.65105,46.072453 -210.51383,45.935143 C -209.09027,50.483203 -206.39671,57.279483 -202.29508,59.310143 C -202.2125,57.258823 -202.61491,54.951403 -201.35758,55.310143 C -199.62782,56.031223 -197.23948,58.213503 -195.51383,58.841393 C -195.38985,58.604303 -195.7615,57.100413 -195.60758,57.028893 C -194.20284,56.656313 -192.2225,58.641483 -190.85758,58.997643 C -190.97206,58.127933 -191.19162,57.293593 -190.20133,57.310143 C -189.2976,57.308243 -187.96247,59.909863 -187.13883,60.060143 C -187.27549,59.201333 -187.06888,58.876933 -186.07633,59.091393 C -185.74024,59.135273 -185.47082,59.718683 -185.13883,59.747643 C -184.19264,59.198313 -182.45126,60.140153 -181.67008,61.185143 C -180.74476,60.405793 -179.30014,60.665893 -178.07633,60.935143 C -177.78134,61.360593 -177.38516,61.008383 -176.92008,60.810143 C -174.97863,60.025913 -176.02433,60.413903 -175.38883,60.872643 C -175.34224,60.871943 -175.28164,60.878033 -175.23258,60.872643 C -174.57148,60.800023 -173.69938,60.359933 -172.98258,61.216393 C -172.92093,61.159633 -172.86829,61.082483 -172.79508,61.028893 C -172.74064,60.976393 -172.66848,60.950613 -172.60758,60.903893 C -171.68678,60.197533 -170.08577,60.114213 -169.26383,60.591393 C -168.93185,60.562433 -168.75618,59.135273 -168.42008,59.091393 C -167.42753,58.876933 -167.25217,59.201333 -167.38883,60.060143 C -166.56519,59.909863 -165.29256,56.558243 -164.38883,56.560143 C -163.39854,56.543593 -163.52435,58.127933 -163.63883,58.997643 C -162.27391,58.641483 -159.91858,53.593823 -158.51383,53.966393 C -158.35991,54.037913 -158.13781,55.854303 -158.01383,56.091393 C -156.28818,55.463503 -154.58734,52.281213 -152.85758,51.560143 C -151.60025,51.201403 -151.34641,54.508833 -151.26383,56.560143 C -148.89273,54.807073 -146.40042,50.754613 -144.35758,48.278893 C -143.90952,47.826853 -143.18287,47.143993 -142.57633,47.622643 C -142.4391,47.759943 -141.30046,50.884333 -141.20133,51.060143 C -137.48841,46.547563 -136.28226,39.18376 -135.98258,34.403893 C -135.4359,34.121536 -131.4504,37.62403 -130.95133,37.966393 C -130.16066,32.263689 -134.33307,21.828125 -138.07633,18.622643 C -138.52441,18.238936 -139.10049,17.696112 -138.70133,17.091393 C -138.44174,16.698121 -133.05685,14.419236 -132.35758,14.278893 C -135.78917,9.6195882 -147.4145,10.965608 -149.57633,10.216393 C -152.54812,6.6579222 -152.86223,0.23186116 -152.73258,-4.7211068 C -152.96448,-8.0689778 -151.46301,-14.36699 -147.23258,-16.721107 C -147.6387,-16.687489 -148.05496,-16.65266 -148.48258,-16.564857 C -150.07161,-16.270152 -151.57118,-15.601541 -152.92008,-14.721107 C -154.97737,-13.389748 -157.41532,-10.078266 -159.54508,-9.0961068 C -159.55563,-8.9206888 -160.57215,-11.125886 -161.13883,-11.658607 C -161.50666,-12.004382 -160.85746,-10.619407 -161.38883,-10.939857 C -162.64552,-11.697738 -164.7598,-11.191699 -165.70133,-10.877357 C -167.60761,-10.240911 -167.1623,-12.064519 -168.42008,-13.096107 C -169.49881,-13.980839 -172.80843,-12.097105 -173.79508,-12.158607 C -175.03786,-12.236075 -175.52169,-13.435874 -176.13883,-13.689857 C -176.75603,-13.435901 -179.24017,-11.017301 -180.48258,-10.939857 C -181.46922,-10.878354 -183.81011,-14.10584 -184.88883,-13.221107 C -186.14661,-12.189518 -187.29505,-10.897162 -189.20133,-11.533607 C -190.14285,-11.847951 -191.25713,-10.853987 -192.51383,-10.096107 C -193.0452,-9.7756548 -192.77618,-12.554622 -193.04508,-12.127357 C -193.44664,-11.489304 -195.13836,-10.213744 -195.23258,-10.533607 C -195.38872,-10.418092 -195.57537,-10.423424 -195.79508,-10.689857 C -197.78395,-11.93947 -199.56633,-13.501355 -201.57633,-14.721107 C -202.92524,-15.60154 -204.42481,-16.270152 -206.01383,-16.564857 C -206.44146,-16.65266 -206.85771,-16.687489 -207.26383,-16.721107 z M -209.42008,-16.002357 C -211.19947,-15.738861 -212.55756,-13.549953 -212.45133,-11.314857 C -212.76355,-7.7291258 -211.466,-4.9862698 -210.10758,-1.7523568 C -209.16608,0.41333216 -207.81261,4.0085972 -206.92008,5.2788932 C -206.54806,4.7790442 -206.20513,4.2442832 -205.88883,3.7163932 C -208.61978,-1.6221598 -213.24558,-8.3948618 -211.79508,-13.283607 C -211.27092,-14.963768 -210.03579,-15.988778 -208.60758,-15.971107 C -208.75756,-15.997375 -208.93068,-16.002557 -209.07633,-16.002357 C -209.19855,-16.002189 -209.30146,-16.019923 -209.42008,-16.002357 z M -145.45133,-16.002357 C -145.66922,-16.002657 -145.88062,-15.968525 -146.10758,-15.908607 C -144.60149,-15.81627 -143.27915,-14.504325 -142.73258,-12.752357 C -141.27696,-7.8463168 -145.97433,-1.7136868 -148.70133,3.6226432 C -148.3662,4.1912452 -147.97569,4.7423202 -147.57633,5.2788932 C -146.07184,2.3674302 -145.33034,0.41333216 -144.38883,-1.7523568 C -143.03041,-4.9862698 -141.76412,-7.3853778 -142.07633,-10.971107 C -142.4348,-13.523701 -143.32733,-15.224607 -145.45133,-16.002357 z M -184.38883,-14.471107 C -184.38168,-14.446641 -184.34306,-14.383386 -184.29508,-14.314857 C -184.2816,-14.295604 -184.27258,-14.273294 -184.26383,-14.252357 C -184.25332,-14.311991 -184.25448,-14.381865 -184.29508,-14.439857 C -184.30239,-14.450295 -184.28861,-14.461306 -184.29508,-14.471107 C -184.31245,-14.473439 -184.34388,-14.470745 -184.35758,-14.471107 C -184.4014,-14.472263 -184.39491,-14.465555 -184.38883,-14.471107 z M -142.20133,49.997643 C -142.23859,50.026363 -142.28927,50.059123 -142.32633,50.091393 C -142.30785,50.083803 -142.28388,50.087633 -142.26383,50.091393 C -142.23375,50.097033 -142.21657,50.096103 -142.20133,50.122643 C -142.16878,50.179773 -142.11748,50.230903 -142.07633,50.278893 C -142.12938,50.144893 -142.16341,50.062773 -142.20133,49.997643 z M -158.70133,56.278893 C -158.66788,56.380653 -158.62882,56.466913 -158.60758,56.560143 C -158.59539,56.613623 -158.55998,56.647413 -158.54508,56.685143 C -158.57605,56.549173 -158.61045,56.395333 -158.67008,56.278893 C -158.67876,56.272853 -158.69189,56.282683 -158.70133,56.278893 z "
         style="color:#000000;fill:#ffcc00;fill-opacity:1;fill-rule:evenodd;stroke:none;stroke-width:11.03499985;stroke-linecap:round;stroke-linejoin:miter;marker:none;marker-start:none;marker-mid:none;marker-end:none;stroke-miterlimit:4;stroke-dashoffset:0;stroke-opacity:1;visibility:visible;display:inline;overflow:visible;enable-background:accumulate" />
      <path
         sodipodi:nodetypes="ccsssccssscccccsscsssscccccccccccccccccccccccssssscccssssccssssccccccccccccccccccc"
         id="path3232"
         d="M -204.17008,6.3101432 C -204.73242,7.5180722 -205.40319,8.6287612 -206.26383,9.5601432 C -207.61498,10.028401 -211.75417,9.9611672 -215.51383,10.997643 C -215.72238,11.055136 -215.93323,11.120711 -216.13883,11.185143 C -216.42551,11.282383 -216.69678,11.378544 -216.98258,11.497643 C -218.28268,12.039415 -220.35831,12.889208 -221.20918,14.419547 C -219.34437,15.073366 -216.76123,14.570417 -215.73258,14.716393 C -215.44987,14.761562 -215.21486,14.804804 -215.17008,14.872643 C -214.77093,15.477362 -215.4675,15.935656 -215.82633,16.403893 C -218.50047,19.89337 -222.6369,28.285 -222.79508,35.216393 C -222.81768,36.206592 -222.76342,37.179055 -222.60758,38.091393 C -222.10852,37.749029 -219.52926,32.902788 -218.98258,33.185143 C -217.95439,39.259551 -216.76126,46.213543 -212.35758,51.185143 C -212.25844,51.009333 -210.65105,46.072453 -210.51383,45.935143 C -209.44616,49.346193 -207.66551,54.011683 -205.10758,56.997643 C -204.96075,57.161153 -204.81721,57.344723 -204.67008,57.497643 C -204.60008,57.571283 -204.52242,57.645423 -204.45133,57.716393 C -203.77971,58.386933 -203.06414,58.929393 -202.29508,59.310143 C -202.2125,57.258823 -202.61491,54.951403 -201.35758,55.310143 C -201.3176,55.326813 -201.27324,55.354453 -201.23258,55.372643 C -201.1562,55.392453 -201.07245,55.412073 -200.98258,55.466393 C -200.97018,55.472583 -200.96379,55.491343 -200.95133,55.497643 C -199.26796,56.349863 -197.11169,58.260003 -195.51383,58.841393 C -195.38985,58.604303 -195.7615,57.100413 -195.60758,57.028893 C -194.20284,56.656313 -192.2225,58.641483 -190.85758,58.997643 C -190.97206,58.127933 -191.19162,57.293593 -190.20133,57.310143 C -189.2976,57.308243 -187.96247,59.909863 -187.13883,60.060143 C -187.27549,59.201333 -187.06888,58.876933 -186.07633,59.091393 C -185.74024,59.135273 -185.47082,59.718683 -185.13883,59.747643 C -184.19264,59.198313 -182.45126,60.140153 -181.67008,61.185143 C -180.74476,60.405793 -179.30014,60.665893 -178.07633,60.935143 C -177.78134,61.360593 -177.38516,61.008383 -176.92008,60.810143 C -174.97863,60.025913 -176.02433,60.413903 -175.38883,60.872643 C -174.7096,60.862503 -173.75542,60.300073 -172.98258,61.247643 C -172.2014,60.202653 -170.21002,60.042073 -169.26383,60.591393 C -168.93185,60.562433 -168.75618,59.135273 -168.42008,59.091393 C -167.42753,58.876933 -167.25217,59.201333 -167.38883,60.060143 C -166.56519,59.909863 -165.29256,56.558243 -164.38883,56.560143 C -163.39854,56.543593 -163.52435,58.127933 -163.63883,58.997643 C -162.27391,58.641483 -159.91858,53.593823 -158.51383,53.966393 C -158.35991,54.037913 -158.13781,55.854303 -158.01383,56.091393 C -156.28818,55.463503 -154.58734,52.281213 -152.85758,51.560143 C -152.26257,51.390373 -151.90271,52.043343 -151.67008,52.997643 C -151.58752,53.071553 -151.55147,53.339983 -151.54508,53.653893 C -151.38447,54.606203 -151.299,55.686503 -151.26383,56.560143 C -150.67106,56.121873 -150.08214,55.537463 -149.48258,54.872643 C -149.41967,54.802893 -149.35795,54.725403 -149.29508,54.653893 C -149.28523,54.641673 -149.2737,54.634923 -149.26383,54.622643 C -148.16139,53.251083 -146.98739,51.560873 -145.88883,50.216393 C -145.81785,50.129523 -145.74032,50.081453 -145.67008,49.997643 C -145.22043,49.394533 -144.77428,48.783903 -144.35758,48.278893 C -143.90952,47.826853 -143.18287,47.143993 -142.57633,47.622643 C -142.4391,47.759943 -141.30046,50.884333 -141.20133,51.060143 C -140.04104,49.649963 -139.10892,47.954723 -138.38883,46.153893 C -138.38025,46.132453 -138.3661,46.112873 -138.35758,46.091393 C -138.2191,45.728763 -138.1108,45.416743 -137.98258,45.060143 C -137.96399,45.007013 -137.93837,44.957153 -137.92008,44.903893 C -136.67236,41.269885 -136.16717,37.348161 -135.98258,34.403893 C -135.4359,34.121536 -131.4504,37.62403 -130.95133,37.966393 C -130.16066,32.263689 -134.33307,21.828125 -138.07633,18.622643 C -138.52441,18.238936 -139.10049,17.696112 -138.70133,17.091393 C -138.65266,17.017654 -138.38906,16.865507 -138.04508,16.685143 C -138.0338,16.674341 -138.02557,16.664617 -138.01383,16.653893 C -137.36794,16.064033 -136.05735,15.602285 -134.82633,15.216393 C -133.69346,14.739544 -132.63388,14.334346 -132.35758,14.278893 C -135.78917,9.6195882 -147.4145,10.965608 -149.57633,10.216393 C -150.25923,9.3986732 -150.80262,8.4083232 -151.23258,7.3413932 C -151.91827,9.8346782 -146.67324,15.097577 -144.13883,14.872643 C -142.43216,16.472444 -142.07919,20.792301 -139.76383,22.903893 C -138.24589,25.436779 -134.33944,28.392151 -138.51383,30.185143 C -141.39327,33.891241 -138.86467,39.798726 -142.60758,42.966393 C -146.25208,43.879988 -148.7565,47.655283 -152.67008,47.591393 C -155.67651,47.357063 -158.01143,49.968283 -160.92008,50.403893 C -166.39097,53.134013 -171.82907,57.720323 -178.32633,56.528893 C -183.78956,56.245703 -188.62648,52.228693 -194.23258,53.153893 C -197.53905,51.859703 -201.7531,51.628213 -204.26383,49.341393 C -205.89956,46.271843 -205.10321,41.44906 -208.85758,39.872643 C -212.93906,40.461837 -213.81536,36.478833 -213.95133,33.122643 C -214.57553,30.502809 -217.20333,28.436615 -215.82633,25.466393 C -214.58464,21.73102 -211.36839,18.987864 -210.48258,15.091393 C -207.78517,12.977861 -204.15706,12.497951 -203.67008,8.2476432 C -203.69531,7.0548052 -203.88629,6.4433992 -204.17008,6.3101432 z "
         style="color:#000000;fill:#ffac00;fill-opacity:1;fill-rule:evenodd;stroke:none;stroke-width:11.03499985;stroke-linecap:round;stroke-linejoin:miter;marker:none;marker-start:none;marker-mid:none;marker-end:none;stroke-miterlimit:4;stroke-dashoffset:0;stroke-opacity:1;visibility:visible;display:inline;overflow:visible;enable-background:accumulate" />
      <path
         id="path4498"
         sodipodi:nodetypes="ccccccccccccsscccssssscccccccsssscccccsscssccssscsscscsccsccccccsscccccsssscccccccssssscccsscccccccccccsccccsssssccssssccccccccccssssscssssscccccccssccccccccccccccccccccccccccccccccsscccccccccccccccccccc"
         d="M -207.7824,-17.104088 C -208.2625,-17.109584 -208.76949,-17.099474 -209.3361,-17.079659 L -209.73674,-16.942855 C -209.84907,-16.910272 -209.95933,-16.872858 -210.06898,-16.83048 L -210.09341,-16.820708 C -211.06354,-16.438768 -211.9174,-15.68522 -212.42397,-14.788189 C -213.82919,-12.27756 -213.78647,-10.110925 -212.70283,-5.1508898 C -211.282,-0.95595084 -210.36496,2.6633212 -208.19625,6.5118422 L -209.00588,6.7152232 C -211.68433,7.6434822 -217.83025,8.2256022 -221.41396,13.847851 L -221.94651,14.688219 L -220.99866,14.991143 C -220.13444,15.267381 -219.76873,15.57918 -219.68925,15.699593 C -219.60977,15.820007 -219.6137,15.787471 -219.72345,15.973201 C -223.10148,21.690204 -224.63803,32.079205 -223.23638,38.19899 L -222.89926,39.67452 L -221.91231,38.526342 C -221.53093,38.084381 -221.23576,37.876052 -221.10615,37.817892 C -221.0813,37.806746 -221.0728,37.79946 -221.06217,37.793463 C -221.0628,37.792717 -221.06683,37.783824 -221.06706,37.783691 C -221.06886,37.782641 -221.05479,37.77926 -221.04752,37.778805 C -221.04971,37.781168 -221.05277,37.788152 -221.06217,37.793463 C -221.03829,37.821879 -220.73471,38.280984 -220.51984,38.858581 L -220.49541,38.926983 L -220.46121,38.985613 C -217.66239,43.644872 -216.00588,48.642933 -212.8979,51.351733 L -211.94515,52.182333 L -211.652,50.951093 C -211.53663,50.472623 -211.42002,50.240983 -211.34419,50.110723 C -211.28007,50.160163 -211.23624,50.188053 -211.14387,50.286613 C -210.99624,50.444143 -210.9161,50.595333 -210.64063,50.809403 C -210.02614,51.286923 -207.94862,55.781223 -206.11632,57.288053 C -205.20017,58.041473 -204.34098,58.711823 -203.66362,59.130023 C -203.32494,59.339123 -202.38385,59.833953 -201.95357,59.887333 C -201.84767,58.846153 -201.69481,58.166033 -201.60178,57.400433 C -200.06998,58.084393 -198.45389,58.673243 -196.88204,59.266833 C -196.32826,59.439493 -195.72541,59.673703 -195.15733,59.716333 C -194.98694,59.659103 -195.00786,59.260293 -194.88861,59.027423 C -194.42576,58.705463 -193.82307,58.883483 -193.29093,58.983453 C -192.97069,59.052533 -192.27212,59.268053 -191.67371,59.388973 C -191.3745,59.449433 -191.08938,59.590423 -190.69165,59.716333 C -190.55556,59.402633 -190.32468,59.111583 -190.04183,58.861303 C -190.03361,58.854033 -190.04028,58.842163 -190.03694,58.831983 C -189.6933,58.813323 -189.20296,58.857993 -189.05977,58.900393 C -188.33187,58.992333 -187.57662,60.417383 -186.96374,60.722813 C -186.85351,60.577793 -186.66172,60.426433 -186.52889,60.336833 C -186.47151,60.298123 -186.41415,60.234133 -186.35789,60.165833 C -186.35708,60.164843 -186.35381,60.166823 -186.353,60.165833 C -185.93575,60.207403 -185.43293,60.376873 -185.11688,60.507843 C -184.95393,60.303053 -184.44489,61.074223 -184.16414,61.011083 C -183.82161,60.938073 -183.34056,60.856033 -182.75701,60.830303 C -182.73214,60.829213 -181.4706,61.800703 -181.38897,62.193463 C -180.95446,61.711003 -180.58431,61.894343 -179.25384,61.401953 C -177.94234,60.916573 -178.08956,62.136433 -177.32881,62.315603 C -176.20791,61.266513 -174.85393,60.691653 -174.13346,61.230943 C -173.4028,61.777873 -173.6888,61.851153 -173.50807,61.905193 C -173.45158,62.520023 -173.10097,60.845633 -171.50975,60.830303 C -170.9262,60.856033 -170.44515,60.938073 -170.10262,61.011083 C -169.82187,61.074223 -169.43497,61.158073 -169.27203,61.362863 C -168.95598,61.231903 -168.5753,60.207403 -168.15805,60.165833 C -167.96309,60.363273 -167.73824,60.519813 -167.54732,60.722813 C -166.93443,60.417383 -166.17918,58.992333 -165.45128,58.900393 C -165.3081,58.857993 -164.81775,58.813323 -164.47411,58.831983 C -164.2202,59.088653 -163.986,59.383173 -163.8194,59.716333 C -163.42167,59.590423 -163.13655,59.449433 -162.83735,59.388973 C -162.23893,59.268053 -161.54036,59.052533 -161.22013,58.983453 C -160.68799,58.883483 -159.12766,55.959613 -158.66482,56.281563 C -158.54556,56.514443 -158.56649,56.913253 -158.3961,56.970473 C -157.82801,56.927853 -157.22516,56.693643 -156.67139,56.520973 C -155.09954,55.927383 -153.48344,55.338533 -151.95164,54.654573 C -151.85862,55.420183 -151.70575,56.100303 -151.59986,57.141483 C -151.16957,57.088103 -150.22849,56.593273 -149.88981,56.384173 C -149.21245,55.965973 -148.35325,55.295613 -147.43711,54.542203 C -145.60481,53.035373 -143.52729,51.169663 -142.9128,50.692143 C -142.63733,50.478073 -142.55719,50.326883 -142.40956,50.169353 C -142.31719,50.070793 -142.27335,50.042893 -142.20923,49.993463 C -142.1334,50.123723 -142.01679,50.355363 -141.90143,50.833833 L -141.60827,52.065073 L -140.65553,51.234473 C -137.54755,48.525673 -135.89103,43.527612 -133.09222,38.868353 L -133.05801,38.809722 L -133.03359,38.74132 C -132.81871,38.163724 -132.51513,37.704617 -132.49125,37.676202 C -132.50058,37.670933 -132.49881,37.663906 -132.50103,37.661545 C -132.49375,37.662 -132.48456,37.665378 -132.48637,37.666431 C -132.4866,37.666563 -132.49062,37.675455 -132.49125,37.676202 C -132.48063,37.6822 -132.47212,37.689484 -132.44728,37.700632 C -132.31766,37.758791 -132.0225,37.967118 -131.64111,38.409082 L -130.65417,39.557259 L -130.31705,38.081729 C -128.91539,31.961945 -130.45195,21.572942 -133.82998,15.85594 C -133.93972,15.67021 -133.94366,15.702745 -133.86418,15.582332 C -133.7847,15.461919 -133.41899,15.150118 -132.55477,14.873882 L -131.60691,14.570958 L -132.13947,13.73059 C -135.72317,8.1083412 -143.05184,7.4183672 -145.7303,6.4901082 L -145.80358,5.7854462 C -144.09916,1.6981982 -143.67576,0.81193516 -142.20331,-3.3753658 C -141.09467,-6.3815948 -140.28904,-11.515056 -141.69427,-14.025685 C -142.20083,-14.922716 -143.44751,-16.438768 -144.41764,-16.820708 L -144.44207,-16.83048 C -144.55173,-16.872858 -144.66199,-16.910272 -144.77431,-16.942855 L -145.17495,-17.079659 C -145.74157,-17.099474 -146.24855,-17.109584 -146.72866,-17.104088 C -148.16897,-17.087603 -149.34431,-16.929376 -150.98913,-16.454268 C -153.89962,-15.483509 -156.43214,-13.698758 -159.09478,-12.223111 C -159.13187,-12.189361 -159.18022,-12.159869 -159.23647,-12.13028 L -159.23647,-12.169367 C -159.55586,-11.903069 -160.58137,-11.901253 -160.24784,-13.786587 C -160.18204,-14.158518 -161.79908,-12.621358 -162.13867,-12.486948 C -162.55347,-12.322767 -164.84204,-14.010743 -164.66466,-13.004849 C -164.53896,-12.292036 -169.23041,-13.841691 -170.20034,-14.426635 C -171.83193,-15.410607 -173.42245,-13.1778 -175.27187,-14.109054 C -176.51291,-14.733969 -175.35722,-15.365614 -175.82397,-15.296319 C -176.55326,-15.415717 -178.64373,-14.492294 -179.23919,-14.109054 C -180.91373,-12.891077 -185.10089,-15.562272 -184.30583,-14.426635 C -183.65622,-13.498762 -189.96721,-12.292036 -189.84151,-13.004849 C -189.66412,-14.010743 -191.95759,-12.322767 -192.37239,-12.486948 C -192.71198,-12.621358 -192.50211,-13.317742 -192.29421,-13.669327 C -191.28944,-15.368573 -195.13881,-11.493074 -195.27459,-12.3306 L -195.26971,-12.13028 C -195.32769,-12.160511 -195.37828,-12.188538 -195.41628,-12.223111 C -198.07892,-13.698758 -200.61144,-15.483509 -203.52193,-16.454268 C -205.16674,-16.929376 -206.34208,-17.087603 -207.7824,-17.104088 z M -207.2645,-16.722991 C -206.85838,-16.689373 -206.44622,-16.639789 -206.0186,-16.551986 C -204.42958,-16.257281 -202.93603,-15.590448 -201.58713,-14.710015 C -199.57712,-13.490262 -197.78625,-11.948335 -195.79738,-10.698722 C -195.57767,-10.432289 -195.40141,-10.431746 -195.24528,-10.547261 C -195.15105,-10.227397 -193.45797,-11.501999 -193.05641,-12.140052 C -192.78751,-12.567317 -193.05913,-9.7808078 -192.52776,-10.10126 C -191.27106,-10.859141 -190.15206,-11.852602 -189.21054,-11.538258 C -187.30426,-10.901812 -186.13525,-12.193124 -184.87747,-13.224713 C -183.79875,-14.109445 -181.45762,-10.863941 -180.47098,-10.925444 C -179.22857,-11.002889 -176.76852,-13.449572 -176.15132,-13.703528 C -175.53418,-13.449546 -175.02837,-12.250888 -173.78559,-12.17342 C -172.79894,-12.111917 -169.48596,-13.987299 -168.40723,-13.102567 C -167.14945,-12.070977 -167.6179,-10.236225 -165.71162,-10.872671 C -164.77009,-11.187015 -162.65271,-11.691125 -161.39602,-10.933244 C -160.86465,-10.612792 -161.50978,-11.997241 -161.14195,-11.651466 C -160.57526,-11.118745 -159.56026,-8.9281528 -159.54971,-9.1035708 C -157.41994,-10.085731 -154.98122,-13.378656 -152.92393,-14.710015 C -151.57503,-15.590448 -150.08148,-16.257281 -148.49245,-16.551986 C -148.06483,-16.639789 -147.65268,-16.689373 -147.24656,-16.722991 C -151.47699,-14.368874 -152.97505,-8.0614118 -152.74315,-4.7135408 C -152.8728,0.23942616 -152.54791,6.6535752 -149.57612,10.212046 C -147.41429,10.961259 -135.8007,9.6087302 -132.36911,14.268035 C -133.06839,14.408379 -138.44646,16.697237 -138.70605,17.090509 C -139.1052,17.695227 -138.50919,18.245848 -138.06111,18.629555 C -134.31786,21.835037 -130.15665,32.26665 -130.94732,37.969354 C -131.44639,37.62699 -135.42817,34.122705 -135.97485,34.405062 C -136.27452,39.184927 -137.48494,46.546003 -141.19786,51.058583 C -141.297,50.882773 -142.43006,47.774393 -142.56729,47.637093 C -143.17384,47.158443 -143.91234,47.839763 -144.3604,48.291803 C -146.40324,50.767523 -148.90141,54.816763 -151.27251,56.569833 C -151.35509,54.518523 -151.6042,51.195563 -152.86153,51.554303 C -154.59129,52.275373 -156.29912,55.453353 -158.02477,56.081243 C -158.14875,55.844153 -158.37018,54.026163 -158.5241,53.954643 C -159.92885,53.582073 -162.27371,58.651723 -163.63863,59.007883 C -163.52415,58.138173 -163.39113,56.537373 -164.38142,56.553923 C -165.28515,56.552023 -166.55756,59.908063 -167.3812,60.058343 C -167.24454,59.199533 -167.43422,58.871593 -168.42677,59.086053 C -168.76287,59.129933 -168.9205,60.566823 -169.25248,60.595783 C -170.19867,60.046463 -172.18945,60.195733 -172.97063,61.240723 C -173.74347,60.293153 -174.70013,60.873913 -175.37936,60.884053 C -176.01486,60.425313 -174.97207,60.031423 -176.91352,60.815653 C -177.3786,61.013893 -177.79602,61.363243 -178.09101,60.937793 C -179.31482,60.668543 -180.75191,60.397853 -181.67723,61.177203 C -182.45841,60.132213 -184.19023,59.191433 -185.13642,59.740763 C -185.46841,59.711803 -185.74819,59.129933 -186.08428,59.086053 C -187.07683,58.871593 -187.26651,59.199533 -187.12985,60.058343 C -187.95349,59.908063 -189.3091,57.300813 -190.21283,57.302713 C -191.20312,57.286163 -190.98691,58.138173 -190.87243,59.007883 C -192.23734,58.651723 -194.20697,56.641093 -195.61172,57.013673 C -195.76563,57.085193 -195.40467,58.590013 -195.52866,58.827103 C -197.25431,58.199213 -199.62772,56.021173 -201.35749,55.300093 C -202.61482,54.941353 -202.19833,57.264373 -202.28092,59.315693 C -206.38254,57.285033 -209.0877,50.472273 -210.51127,45.924213 C -210.64848,46.061523 -212.25642,51.000033 -212.35557,51.175843 C -216.75925,46.204243 -217.96476,39.265556 -218.99296,33.191148 C -219.53963,32.908792 -222.10704,37.744251 -222.60611,38.086615 C -223.85278,30.787915 -218.88127,20.405233 -215.82511,16.417259 C -215.46628,15.949023 -214.78102,15.482931 -215.18018,14.878212 C -215.43977,14.484942 -220.48504,14.52564 -221.18432,14.385296 C -217.75272,9.7259922 -208.42794,10.295672 -206.26612,9.5464592 C -203.02343,6.0372602 -202.14553,0.089734155 -201.7679,-4.7135408 C -201.536,-8.0614118 -203.03407,-14.368874 -207.2645,-16.722991 z M -209.06738,-16.014541 C -208.92173,-16.014741 -208.77275,-16.001722 -208.62277,-15.975454 C -210.05097,-15.993127 -211.2793,-14.958619 -211.80346,-13.278458 C -213.25395,-8.3897118 -208.62252,-1.6142088 -205.89157,3.7243442 C -206.20787,4.2522332 -206.55046,4.7684272 -206.92249,5.2682762 C -207.81501,3.9979812 -209.18122,0.41298116 -210.12273,-1.7527078 C -211.48114,-4.9866208 -212.75573,-7.7432678 -212.44351,-11.328999 C -212.55682,-13.713101 -211.02288,-16.01185 -209.06738,-16.014541 z M -145.44368,-16.014541 C -143.31969,-15.236791 -142.42601,-13.510912 -142.06754,-10.958318 C -141.75533,-7.3725868 -143.02991,-4.9866208 -144.38833,-1.7527078 C -145.32984,0.41298116 -146.08408,2.3568132 -147.58857,5.2682762 C -147.98793,4.7317042 -148.35276,4.1756852 -148.68789,3.6070832 C -145.96089,-1.7292468 -141.29106,-7.8447448 -142.74668,-12.750785 C -143.29325,-14.502753 -144.60695,-15.829372 -146.11304,-15.921709 C -145.88608,-15.981628 -145.66157,-16.014841 -145.44368,-16.014541 z "
         style="fill:#000000;fill-opacity:1;fill-rule:evenodd;stroke:none;stroke-width:1px;stroke-linecap:butt;stroke-linejoin:miter;stroke-opacity:1" />
      <g
         transform="translate(-291.09953,-54.077994)"
         id="g18436">
        <path
           style="fill:#000000;fill-opacity:1;fill-rule:nonzero;stroke:none;stroke-width:12.10000038;stroke-linecap:round;stroke-miterlimit:4;stroke-dasharray:none;stroke-opacity:1"
           id="path12150"
           sodipodi:cx="473.716"
           sodipodi:cy="299.55161"
           sodipodi:type="arc"
           d="M 505.66752 299.55161 A 31.951519 36.11911 0 1 1  441.76448,299.55161 A 31.951519 36.11911 0 1 1  505.66752 299.55161 z"
           transform="matrix(0.1927116,0,0,0.1927116,7.7749695,8.9070118)"
           sodipodi:rx="31.951519"
           sodipodi:ry="36.11911" />
        <g
           id="g16281"
           transform="matrix(0.1563476,0,0,0.1563476,23.1072,21.475321)">
          <path
             style="fill:#ffffff;fill-opacity:1;fill-rule:nonzero;stroke:none;stroke-width:12.10000038;stroke-linecap:round;stroke-miterlimit:4;stroke-dasharray:none;stroke-opacity:1"
             id="path12152"
             sodipodi:cx="473.716"
             sodipodi:cy="299.55161"
             sodipodi:type="arc"
             d="M 505.66752 299.55161 A 31.951519 36.11911 0 1 1  441.76448,299.55161 A 31.951519 36.11911 0 1 1  505.66752 299.55161 z"
             transform="matrix(1.0811606,0,0,1.0811606,-23.509896,-32.724848)"
             sodipodi:rx="31.951519"
             sodipodi:ry="36.11911" />
          <path
             style="fill:#000000;fill-opacity:1;fill-rule:nonzero;stroke:none;stroke-width:12.10000038;stroke-linecap:round;stroke-miterlimit:4;stroke-dasharray:none;stroke-opacity:1"
             id="path12154"
             sodipodi:cx="473.716"
             sodipodi:cy="299.55161"
             sodipodi:type="arc"
             d="M 505.66752 299.55161 A 31.951519 36.11911 0 1 1  441.76448,299.55161 A 31.951519 36.11911 0 1 1  505.66752 299.55161 z"
             transform="matrix(0.7090114,0,0,0.6946313,160.36724,90.9767)"
             sodipodi:rx="31.951519"
             sodipodi:ry="36.11911" />
          <path
             style="fill:#ffffff;fill-opacity:1;fill-rule:nonzero;stroke:none;stroke-width:12.10000038;stroke-linecap:round;stroke-miterlimit:4;stroke-dasharray:none;stroke-opacity:1"
             id="path12162"
             sodipodi:cx="474.25897"
             sodipodi:cy="282.82684"
             sodipodi:type="arc"
             d="M 477.24549 282.82684 A 2.9865174 7.9142714 0 1 1  471.27245,282.82684 A 2.9865174 7.9142714 0 1 1  477.24549 282.82684 z"
             transform="matrix(0.8238341,0.5772092,-0.47591,0.6577083,231.90013,-173.35323)"
             sodipodi:rx="2.9865174"
             sodipodi:ry="7.9142714" />
        </g>
      </g>
      <g
         transform="matrix(0.1976935,0,0,0.1976935,-295.55106,-42.22016)"
         id="g16275">
        <path
           sodipodi:ry="36.11911"
           sodipodi:rx="31.951519"
           transform="matrix(-1.2325845,0,0,1.2325845,1217.9534,-94.386966)"
           d="M 505.66752 299.55161 A 31.951519 36.11911 0 1 1  441.76448,299.55161 A 31.951519 36.11911 0 1 1  505.66752 299.55161 z"
           sodipodi:type="arc"
           sodipodi:cy="299.55161"
           sodipodi:cx="473.716"
           id="path12168"
           style="fill:#000000;fill-opacity:1;fill-rule:nonzero;stroke:none;stroke-width:12.10000038;stroke-linecap:round;stroke-miterlimit:4;stroke-dasharray:none;stroke-opacity:1" />
        <path
           sodipodi:ry="36.11911"
           sodipodi:rx="31.951519"
           transform="matrix(-1.0811606,0,0,1.0811606,1143.3983,-46.724848)"
           d="M 505.66752 299.55161 A 31.951519 36.11911 0 1 1  441.76448,299.55161 A 31.951519 36.11911 0 1 1  505.66752 299.55161 z"
           sodipodi:type="arc"
           sodipodi:cy="299.55161"
           sodipodi:cx="473.716"
           id="path12170"
           style="fill:#ffffff;fill-opacity:1;fill-rule:nonzero;stroke:none;stroke-width:12.10000038;stroke-linecap:round;stroke-miterlimit:4;stroke-dasharray:none;stroke-opacity:1" />
        <path
           sodipodi:ry="36.11911"
           sodipodi:rx="31.951519"
           transform="matrix(-0.7090114,0,0,0.6946313,959.52109,76.9767)"
           d="M 505.66752 299.55161 A 31.951519 36.11911 0 1 1  441.76448,299.55161 A 31.951519 36.11911 0 1 1  505.66752 299.55161 z"
           sodipodi:type="arc"
           sodipodi:cy="299.55161"
           sodipodi:cx="473.716"
           id="path12172"
           style="fill:#000000;fill-opacity:1;fill-rule:nonzero;stroke:none;stroke-width:12.10000038;stroke-linecap:round;stroke-miterlimit:4;stroke-dasharray:none;stroke-opacity:1" />
        <path
           sodipodi:ry="7.9142714"
           sodipodi:rx="2.9865174"
           transform="matrix(0.8238341,0.5772092,-0.47591,0.6577083,359.57465,-189.05219)"
           d="M 477.24549 282.82684 A 2.9865174 7.9142714 0 1 1  471.27245,282.82684 A 2.9865174 7.9142714 0 1 1  477.24549 282.82684 z"
           sodipodi:type="arc"
           sodipodi:cy="282.82684"
           sodipodi:cx="474.25897"
           id="path12174"
           style="fill:#ffffff;fill-opacity:1;fill-rule:nonzero;stroke:none;stroke-width:12.10000038;stroke-linecap:round;stroke-miterlimit:4;stroke-dasharray:none;stroke-opacity:1" />
      </g>
      <path
         id="path5316"
         sodipodi:nodetypes="cscccccc"
         d="M -192.10883,29.293063 C -191.70712,30.249158 -192.0396,30.219771 -192.65673,30.216127 C -192.95683,30.214355 -193.29086,29.939637 -193.74109,29.71981 C -204.28281,23.538574 -222.91729,17.428747 -240.98161,25.200838 C -236.58593,22.284472 -222.35289,19.969482 -217.26191,20.444466 C -208.62198,21.400248 -200.25188,24.423894 -192.80261,28.869109 C -192.57135,29.010427 -192.34009,29.151743 -192.10883,29.293061 L -192.10883,29.293063 z "
         style="fill:#000000;fill-rule:evenodd;stroke:none;stroke-width:1px;stroke-linecap:butt;stroke-linejoin:miter;stroke-opacity:1" />
      <path
         d="M -193.25982,34.366935 C -192.63972,35.198177 -192.96949,35.249709 -193.56935,35.394767 C -193.86104,35.465305 -194.25139,35.279096 -194.7413,35.174147 C -206.46121,31.71303 -223.45714,29.87611 -233.76275,38.023042 C -230.19861,34.134077 -224.85903,32.599904 -219.80346,31.835093 C -211.18759,30.682413 -202.3357,31.601724 -194.03527,34.122504 C -193.77679,34.203982 -193.5183,34.285456 -193.25982,34.366933 L -193.25982,34.366935 z "
         sodipodi:nodetypes="cscccccc"
         id="path13244"
         style="fill:#000000;fill-rule:evenodd;stroke:none;stroke-width:1px;stroke-linecap:butt;stroke-linejoin:miter;stroke-opacity:1" />
      <path
         id="path13246"
         sodipodi:nodetypes="cscccccc"
         d="M -193.48209,37.671585 C -192.69993,38.237915 -192.91907,38.389391 -193.29722,38.711991 C -193.4811,38.868861 -193.83907,38.821458 -194.237,38.880041 C -204.13549,39.40983 -217.22111,43.096489 -221.46298,53.824613 C -220.42316,49.131823 -217.15394,46.037413 -213.78436,43.738322 C -207.98172,39.958368 -201.18133,38.003968 -194.14318,37.692494 C -193.92281,37.685524 -193.70245,37.678552 -193.48209,37.671584 L -193.48209,37.671585 z "
         style="fill:#000000;fill-rule:evenodd;stroke:none;stroke-width:1px;stroke-linecap:butt;stroke-linejoin:miter;stroke-opacity:1" />
      <path
         d="M -171.04825,30.448173 C -171.44996,31.404268 -171.11748,31.374881 -170.50035,31.371237 C -170.20026,31.369465 -169.86623,31.094747 -169.416,30.874921 C -152.53937,20.939672 -134.60878,20.695489 -122.64473,26.121322 C -127.0404,23.204956 -140.8042,21.124592 -145.89518,21.599576 C -154.5351,22.555358 -162.90521,25.579004 -170.35447,30.024219 C -170.58573,30.165537 -170.81699,30.306854 -171.04825,30.448171 L -171.04825,30.448173 z "
         sodipodi:nodetypes="cscccccc"
         id="path13248"
         style="fill:#000000;fill-rule:evenodd;stroke:none;stroke-width:1px;stroke-linecap:butt;stroke-linejoin:miter;stroke-opacity:1" />
      <path
         id="path13250"
         sodipodi:nodetypes="cscccccc"
         d="M -170.66734,34.366935 C -171.28744,35.198177 -170.95767,35.249709 -170.35781,35.394767 C -170.06612,35.465305 -169.67577,35.279096 -169.18586,35.174147 C -157.46595,31.71303 -140.47002,29.87611 -130.16441,38.023042 C -133.72855,34.134077 -139.06813,32.599904 -144.1237,31.835093 C -152.73957,30.682413 -161.59146,31.601724 -169.89189,34.122504 C -170.15037,34.203982 -170.40886,34.285456 -170.66734,34.366933 L -170.66734,34.366935 z "
         style="fill:#000000;fill-rule:evenodd;stroke:none;stroke-width:1px;stroke-linecap:butt;stroke-linejoin:miter;stroke-opacity:1" />
      <path
         d="M -169.67499,39.211731 C -170.45716,39.778061 -170.23802,39.929537 -169.85986,40.252137 C -169.67598,40.409007 -169.31802,40.361604 -168.92008,40.420187 C -159.0216,40.949976 -145.93598,44.636633 -141.6941,55.364763 C -142.73392,50.671963 -146.00315,47.577563 -149.37272,45.278473 C -155.17537,41.498513 -161.97576,39.544114 -169.01391,39.232639 C -169.23427,39.22567 -169.45463,39.218698 -169.67499,39.21173 L -169.67499,39.211731 z "
         sodipodi:nodetypes="cscccccc"
         id="path13252"
         style="fill:#000000;fill-rule:evenodd;stroke:none;stroke-width:1px;stroke-linecap:butt;stroke-linejoin:miter;stroke-opacity:1" />
      <path
         sodipodi:ry="40.634472"
         sodipodi:rx="48.022556"
         transform="matrix(0.1563476,0,0,0.1047081,-268.43788,-10.665209)"
         d="M 608.28568 437.48892 A 48.022556 40.634472 0 1 1  512.24057,437.48892 A 48.022556 40.634472 0 1 1  608.28568 437.48892 z"
         sodipodi:type="arc"
         sodipodi:cy="437.48892"
         sodipodi:cx="560.26312"
         id="path13254"
         style="fill:#000000;fill-opacity:1;fill-rule:nonzero;stroke:none;stroke-width:12.10000038;stroke-linecap:round;stroke-miterlimit:4;stroke-dasharray:none;stroke-opacity:1" />
      <path
         id="path13281"
         sodipodi:nodetypes="csccccccscc"
         d="M -171.88266,42.887648 C -172.0891,42.900738 -174.0149,42.704236 -170.52119,43.620226 C -169.92159,43.777436 -169.39644,43.920629 -168.9099,44.054219 C -169.00186,44.631213 -169.51851,45.373813 -170.4985,46.102193 C -176.69829,50.161553 -186.76842,49.779823 -192.94309,46.303043 C -193.71565,46.180913 -193.83101,46.097353 -193.2245,46.399883 C -186.50369,50.492013 -177.62216,49.848713 -174.73555,49.074543 C -171.36568,48.224063 -168.72989,47.166173 -166.43415,44.550233 C -165.9546,44.690253 -164.29365,45.447153 -163.87179,45.248563 C -163.24032,44.951313 -163.38175,45.147243 -163.16645,44.885353 C -166.51733,43.264391 -167.5459,43.616053 -171.88266,42.887648 z "
         style="fill:#000000;fill-opacity:1;fill-rule:evenodd;stroke:none;stroke-width:6.77248001;stroke-linecap:round;stroke-linejoin:miter;stroke-miterlimit:4;stroke-dasharray:none;stroke-opacity:1" />
      <path
         d="M -174.21752,-7.5191628 C -168.06684,-10.262534 -166.88522,-6.9475258 -167.43668,-10.708896 C -167.49746,-11.170178 -167.1998,-11.48868 -167.58836,-11.33665 C -166.66411,-14.280679 -179.29022,-5.3128448 -176.75791,-7.0760648 C -180.24332,-4.1926568 -180.3123,-4.8007158 -174.21752,-7.5191628 z "
         sodipodi:nodetypes="ccccz"
         id="path16262"
         style="color:#000000;fill:#000000;fill-opacity:1;fill-rule:evenodd;stroke:none;stroke-width:5.47449255;stroke-linecap:round;stroke-linejoin:miter;marker:none;stroke-miterlimit:4;stroke-dasharray:none;stroke-dashoffset:0;stroke-opacity:1;visibility:visible;display:inline;overflow:visible;enable-background:accumulate" />
      <path
         id="path16264"
         sodipodi:nodetypes="ccccz"
         d="M -189.50693,-0.32858084 C -194.68652,-0.71036184 -195.14159,1.0305002 -195.24042,-0.82752384 C -195.25787,-1.0543698 -195.53464,-1.1605528 -195.21043,-1.1464768 C -196.34459,-2.3993538 -185.24302,-0.040270845 -187.4646,-0.49670584 C -184.34272,0.34710416 -184.37442,0.049734155 -189.50693,-0.32858084 z "
         style="color:#000000;fill:#000000;fill-opacity:1;fill-rule:evenodd;stroke:none;stroke-width:5.47449255;stroke-linecap:round;stroke-linejoin:miter;marker:none;stroke-miterlimit:4;stroke-dasharray:none;stroke-dashoffset:0;stroke-opacity:1;visibility:visible;display:inline;overflow:visible;enable-background:accumulate" />
      <path
         sodipodi:ry="6.1476798"
         sodipodi:rx="11.971797"
         transform="matrix(0.1791,-3.063553e-2,3.1910451e-2,0.1865534,-294.94588,-32.311775)"
         d="M 553.29119 441.56393 A 11.971797 6.1476798 0 1 1  529.3476,441.56393 A 11.971797 6.1476798 0 1 1  553.29119 441.56393 z"
         sodipodi:type="arc"
         sodipodi:cy="441.56393"
         sodipodi:cx="541.3194"
         id="path17264"
         style="color:#000000;fill:#ffffff;fill-opacity:1;fill-rule:evenodd;stroke:none;stroke-width:11.03499985;stroke-linecap:round;stroke-linejoin:miter;marker:none;marker-start:none;marker-mid:none;marker-end:none;stroke-miterlimit:4;stroke-dasharray:none;stroke-dashoffset:0;stroke-opacity:1;visibility:visible;display:inline;overflow:visible;enable-background:accumulate" />
      <path
         sodipodi:nodetypes="csscccc"
         id="path3242"
         d="M -147.49983,-16.725703 C -147.49983,-16.725703 -150.63126,-16.505995 -153.3395,-14.440614 C -154.64759,-13.443023 -156.80945,-11.055297 -157.40188,-10.547499 C -157.99432,-10.039702 -159.09455,-9.4472708 -159.51771,-9.2780058 L -156.72482,-2.5073708 C -156.72482,-2.5073708 -156.97872,-5.8926878 -156.21703,-8.0931438 C -154.95423,-12.973776 -150.92191,-14.882196 -147.49983,-16.725703 z "
         style="opacity:1;color:#000000;fill:#ffac00;fill-opacity:1;fill-rule:evenodd;stroke:none;stroke-width:11.03499985;stroke-linecap:round;stroke-linejoin:miter;marker:none;marker-start:none;marker-mid:none;marker-end:none;stroke-miterlimit:4;stroke-dasharray:none;stroke-dashoffset:0;stroke-opacity:1;visibility:visible;display:inline;overflow:visible;enable-background:accumulate" />
      <path
         sodipodi:nodetypes="cscsssssssccsssssssssssssssssssssssssscssssssssssssssssssssssssccccccccsc"
         id="path3246"
         d="M -207.20133,-16.689857 C -206.62965,-16.542311 -204.55723,-15.988963 -200.56216,-12.858988 C -195.72524,-9.0694638 -196.47162,-4.9011608 -196.82633,-3.5961068 C -196.55433,-4.3448138 -194.8017,-9.0648558 -193.85758,-9.0648568 C -192.83537,-9.0648568 -191.10994,-8.9939658 -189.35758,-10.064857 C -187.60521,-11.135748 -186.80223,-10.180231 -184.07633,-9.5961068 C -181.35042,-9.0119848 -179.14539,-9.5811008 -176.85758,-10.408607 C -174.56977,-11.236114 -171.99275,-10.800442 -169.60758,-11.189857 C -167.22242,-11.579272 -167.67304,-10.127358 -165.48258,-10.127357 C -163.29212,-10.127357 -162.7343,-9.8400308 -158.88883,-6.6273568 C -158.31011,-6.1438668 -158.11157,-5.9619748 -157.79508,-5.6898568 L -159.32633,-9.2211068 C -159.3985,-9.1830838 -159.47358,-9.1290818 -159.54508,-9.0961068 C -159.55035,-9.0083978 -159.81292,-9.5350458 -160.13883,-10.127357 C -160.3928,-10.588933 -160.66762,-11.046304 -160.92008,-11.377357 C -161.00213,-11.488296 -161.068,-11.592017 -161.13883,-11.658607 C -161.18481,-11.701829 -161.21398,-11.725245 -161.23258,-11.721107 C -161.25432,-11.716223 -161.26719,-11.677562 -161.26383,-11.627357 C -161.2627,-11.436956 -161.06292,-10.90992 -161.23258,-10.877357 C -161.2664,-10.87083 -161.32241,-10.899801 -161.38883,-10.939857 C -161.69509,-11.124553 -162.07232,-11.227798 -162.45133,-11.283607 C -162.46147,-11.285018 -162.47241,-11.282271 -162.48258,-11.283607 C -162.87252,-11.338012 -163.26802,-11.35015 -163.67008,-11.314857 C -164.4742,-11.244271 -165.23056,-11.034528 -165.70133,-10.877357 C -166.1779,-10.718245 -166.52002,-10.71623 -166.76383,-10.814857 C -167.01683,-10.915227 -167.15007,-11.11447 -167.29508,-11.377357 C -167.43428,-11.631398 -167.56984,-11.913976 -167.73258,-12.221107 C -167.81504,-12.37415 -167.90191,-12.54251 -168.01383,-12.689857 C -168.12512,-12.837509 -168.26286,-12.967158 -168.42008,-13.096107 C -168.55492,-13.206698 -168.72442,-13.281574 -168.92008,-13.314857 C -169.11583,-13.348369 -169.33748,-13.340077 -169.57633,-13.314857 C -170.05372,-13.263633 -170.59604,-13.116184 -171.13883,-12.939857 C -171.68162,-12.76353 -172.23545,-12.562734 -172.70133,-12.408607 C -173.15404,-12.260725 -173.55385,-12.14357 -173.79508,-12.158607 C -174.10577,-12.177974 -174.37781,-12.281263 -174.60758,-12.408607 C -174.84453,-12.53993 -175.02033,-12.701009 -175.20133,-12.877357 C -175.37519,-13.042575 -175.55211,-13.199882 -175.70133,-13.346107 C -175.70674,-13.351443 -175.69593,-13.372091 -175.70133,-13.377357 C -175.85495,-13.526658 -175.98455,-13.626361 -176.13883,-13.689857 C -176.52458,-13.531134 -177.65429,-12.541637 -178.73258,-11.783607 C -179.16389,-11.480395 -179.57658,-11.214475 -179.95133,-11.064857 C -180.13871,-10.990048 -180.32728,-10.949537 -180.48258,-10.939857 C -180.60591,-10.932169 -180.72828,-10.952477 -180.88883,-11.033607 C -180.89979,-11.039148 -180.90897,-11.058975 -180.92008,-11.064857 C -181.39711,-11.317383 -182.02064,-11.869368 -182.63883,-12.377357 C -182.85801,-12.557462 -183.08009,-12.727462 -183.29508,-12.877357 C -183.60585,-13.094601 -183.89632,-13.271641 -184.17008,-13.346107 C -184.44385,-13.421602 -184.68657,-13.386994 -184.88883,-13.221107 C -185.20328,-12.96321 -185.512,-12.696138 -185.82633,-12.439857 C -186.14259,-12.183674 -186.4512,-11.938467 -186.79508,-11.752357 C -187.13639,-11.566116 -187.49344,-11.425134 -187.88883,-11.377357 C -188.29426,-11.324173 -188.71303,-11.37058 -189.20133,-11.533607 C -189.31902,-11.5729 -189.45317,-11.594668 -189.57633,-11.596107 C -189.82239,-11.598957 -190.05962,-11.521034 -190.32633,-11.408607 C -190.73513,-11.241014 -191.15314,-10.988587 -191.60758,-10.689857 C -191.90348,-10.495008 -192.19966,-10.285577 -192.51383,-10.096107 C -192.90726,-9.8588448 -192.86174,-11.336164 -192.92008,-11.939857 C -192.92155,-11.953538 -192.91849,-11.958458 -192.92008,-11.971107 C -192.92163,-11.985818 -192.91838,-11.988836 -192.92008,-12.002357 C -192.92973,-12.078973 -192.96614,-12.129131 -192.98258,-12.158607 C -192.98742,-12.167276 -193.00823,-12.154864 -193.01383,-12.158607 C -193.02247,-12.15129 -193.035,-12.143379 -193.04508,-12.127357 C -193.34625,-11.648817 -194.38533,-10.818305 -194.92008,-10.564857 C -195.09821,-10.480284 -195.20903,-10.453641 -195.23258,-10.533607 C -195.38872,-10.418092 -195.57537,-10.423424 -195.79508,-10.689857 C -197.78395,-11.93947 -199.56633,-13.501355 -201.57633,-14.721107 C -202.92524,-15.60154 -204.42481,-16.270152 -206.01383,-16.564857 C -206.35593,-16.635099 -206.6867,-16.657141 -207.01383,-16.689857 L -207.20133,-16.689857 z M -157.79508,-5.6898568 L -157.67008,-5.4086068 C -157.67008,-5.4086068 -157.03403,-4.9122108 -156.85758,-4.8148568 C -156.92657,-4.8926608 -157.33937,-5.2980418 -157.79508,-5.6898568 z "
         style="opacity:1;color:#000000;fill:#ffac00;fill-opacity:1;fill-rule:evenodd;stroke:none;stroke-width:11.03499985;stroke-linecap:round;stroke-linejoin:miter;marker:none;marker-start:none;marker-mid:none;marker-end:none;stroke-miterlimit:4;stroke-dasharray:none;stroke-dashoffset:0;stroke-opacity:1;visibility:visible;display:inline;overflow:visible;enable-background:accumulate" />
    </g>
  </g>
</svg>
