<svg width="335" height="335" viewBox="0 0 335 335" fill="none" xmlns="http://www.w3.org/2000/svg">
<g clip-path="url(#clip0)">
<circle cx="166.986" cy="167.216" r="165.216" fill="#981CEB"/>
<path d="M234.294 255.38C231.996 250.316 226.041 248.079 220.99 250.381C217.924 251.779 215.906 254.529 215.299 257.603C212.588 256.041 209.193 255.759 206.129 257.156C201.078 259.458 198.845 265.428 201.142 270.492C201.467 271.208 201.874 271.865 202.333 272.462C207.191 279.792 219.749 284.14 227.075 283.564C232.323 278.408 237.31 266.062 234.991 257.579C234.844 256.836 234.618 256.096 234.294 255.38ZM240.666 229.666C239.075 226.158 234.949 224.608 231.45 226.203C229.327 227.171 227.929 229.077 227.509 231.208C225.631 230.126 223.279 229.928 221.157 230.895C217.658 232.49 216.112 236.626 217.703 240.133C217.928 240.631 218.21 241.084 218.528 241.498C221.892 246.575 230.591 249.586 235.665 249.187C239.299 245.616 242.755 237.065 241.15 231.187C241.047 230.675 240.891 230.163 240.666 229.666Z" fill="#DD2E44"/>
<path d="M77.4053 272.213C82.0906 276.909 89.6868 276.909 94.372 272.213C99.0572 267.516 99.0572 259.901 94.372 255.205C89.6868 250.508 82.0906 250.508 77.4053 255.205C72.7201 259.901 72.7201 267.516 77.4053 272.213Z" fill="#FFCB4C"/>
<path d="M82.149 263.98C82.1345 263.849 82.157 263.714 82.2248 263.592C82.3875 263.295 82.7478 263.198 83.0287 263.376C85.7978 265.13 86.1296 267.848 86.1431 267.964C86.182 268.309 85.9505 268.616 85.6281 268.653C85.3068 268.689 85.0148 268.44 84.9754 268.096C84.9624 267.999 84.676 265.872 82.4384 264.454C82.2712 264.348 82.1699 264.169 82.149 263.98Z" fill="#65471B"/>
<path d="M85.0437 259.672C85.6293 260.259 86.6975 260.141 87.4295 259.407C88.1615 258.673 88.2801 257.602 87.6944 257.015C87.1088 256.428 86.0406 256.547 85.3086 257.281C84.5766 258.015 84.458 259.085 85.0437 259.672Z" fill="#65471B"/>
<path d="M90.1306 265.834C90.7162 266.421 91.7844 266.302 92.5164 265.569C93.2484 264.835 93.367 263.764 92.7814 263.177C92.1957 262.59 91.1275 262.709 90.3956 263.443C89.6636 264.176 89.5449 265.247 90.1306 265.834Z" fill="#65471B"/>
<path d="M76.4797 272.416C76.4797 272.416 77.316 272.844 77.8674 272.455C78.4388 272.055 78.1384 271.559 78.1384 271.559C78.1384 271.559 78.7617 271.976 79.4099 271.457C80.0207 270.968 79.6604 270.344 79.6604 270.344C79.6604 270.344 80.3441 270.63 80.9354 270.083C81.4329 269.622 81.1515 268.871 81.1515 268.871C81.1515 268.871 84.2748 270.78 84.5932 270.979C84.9106 271.177 85.5588 271.332 85.972 270.667C86.3867 270.002 85.9291 269.505 85.6257 269.316C85.3218 269.126 81.4788 266.726 80.1525 265.898L79.2677 265.346C78.9348 265.139 78.9309 264.898 79.3216 264.887C79.8426 264.873 80.3007 264.739 80.8481 264.304C81.424 263.845 81.8865 263.03 82.0338 262.682C82.3067 262.034 82.3551 261.354 82.1161 260.864C81.7433 260.101 80.9853 260.052 80.5676 260.874C79.9439 262.104 78.9872 262.666 78.0097 262.605C75.7112 262.459 74.3753 262.658 73.1178 264.677C71.747 266.88 72.3697 269.806 74.5669 271.18L76.4797 272.416Z" fill="#F19020"/>
<path d="M86.8682 254.019C86.8302 253.893 86.8287 253.755 86.8722 253.623C86.978 253.301 87.3148 253.14 87.6232 253.264C90.6657 254.482 91.4866 257.094 91.52 257.204C91.6208 257.536 91.4507 257.882 91.1393 257.977C90.8294 258.072 90.4975 257.88 90.3952 257.549C90.3653 257.456 89.6966 255.416 87.2389 254.432C87.0563 254.358 86.9236 254.201 86.8682 254.019ZM91.0524 261.965C91.0235 261.838 91.031 261.7 91.0834 261.572C91.2106 261.257 91.5575 261.12 91.8579 261.264C94.8106 262.687 95.4533 265.348 95.4787 265.461C95.5561 265.798 95.363 266.132 95.0466 266.206C94.7312 266.28 94.4123 266.065 94.3335 265.729C94.3095 265.633 93.7816 263.554 91.3953 262.405C91.2171 262.317 91.0964 262.151 91.0524 261.965Z" fill="#65471B"/>
<path d="M79.2024 71.8828C81.9937 76.6482 80.4028 82.7795 75.649 85.5776C70.8957 88.3754 64.7789 86.7809 61.9876 82.0155C59.1966 77.2506 60.7877 71.1185 65.541 68.3207C70.2948 65.5226 76.4114 67.1179 79.2024 71.8828Z" fill="#FFCC4D"/>
<path d="M73.5681 82.0247C75.5255 80.8725 76.1141 78.2342 74.8826 76.1319C73.6512 74.0295 71.0661 73.2592 69.1087 74.4114C67.1513 75.5635 66.5627 78.2018 67.7942 80.3042C69.0256 82.4065 71.6107 83.1768 73.5681 82.0247Z" fill="#664500"/>
<path d="M75.9405 80.8814C75.9405 80.8814 76.231 80.2184 75.5442 80.0131C74.8575 79.8078 74.739 80.5226 74.739 80.5226L73.7881 83.7209C73.6922 83.6375 73.3348 83.4806 73.2281 83.4042L74.5467 78.9656C74.5467 78.9656 74.8376 78.3022 74.1496 78.097C73.4631 77.8922 73.3435 78.6063 73.3435 78.6063L72.1029 82.7806C71.9927 82.7376 71.709 82.6439 71.5946 82.6033L73.0331 77.7637C73.0331 77.7637 73.3233 77.1002 72.6363 76.8957C71.9496 76.6904 71.8308 77.4047 71.8308 77.4047L70.3907 82.2438C70.2716 82.2149 69.8997 82.1171 69.7821 82.0928L71.1265 77.5694C71.1265 77.5694 71.4162 76.9061 70.7297 76.7013C70.0425 76.4963 69.9241 77.2103 69.9241 77.2103L68.5021 81.9931L68.3884 82.3767L68.3386 82.5473C68.3386 82.5473 68.2873 83.0853 67.8414 82.9621L67.5379 80.3027C67.5379 80.3027 67.5123 79.5848 66.7963 79.6097C66.0792 79.6351 66.1049 80.3531 66.1049 80.3531L66.0803 82.25C66.0695 83.0024 66.0447 83.7575 65.9286 84.5009C65.6026 86.5992 66.8647 88.669 68.9523 89.2934C71.2289 89.973 73.6252 88.6738 74.3035 86.3921L74.4055 86.0467L75.9405 80.8814Z" fill="#F4900C"/>
<path d="M63.8124 73.488C62.8502 74.4666 62.6346 75.5225 62.6219 75.588C62.561 75.9071 62.7696 76.2157 63.0878 76.2775C63.4064 76.3391 63.714 76.1308 63.7751 75.8108C63.7893 75.7431 64.1635 74.0445 66.2733 73.3221C66.5807 73.2169 66.744 72.8819 66.6392 72.575C66.5345 72.2674 66.2005 72.1029 65.8939 72.2083C64.9662 72.525 64.2955 72.9969 63.8124 73.488ZM70.885 69.3258C70.2218 69.5094 69.4839 69.8666 68.7548 70.5237C68.5139 70.7412 68.4942 71.1132 68.7112 71.3547C68.9288 71.5959 69.2994 71.616 69.5403 71.3985C71.1993 69.9019 72.8597 70.4036 72.9291 70.4256C73.2359 70.5228 73.5674 70.3529 73.6662 70.045C73.7649 69.737 73.5999 69.4076 73.2933 69.3061C73.2304 69.2858 72.2058 68.9606 70.885 69.3258Z" fill="#664500"/>
<path d="M14.5414 149.993C13.2807 151.822 12.5328 153.84 12.1865 155.904C6.20707 175.002 29.7683 189.627 61.627 212.831C66.9541 216.71 59.4379 220.974 47.8374 233.727C40.2918 242.021 36.4906 260.151 46.3846 267.006C62.698 278.307 55.8977 254.536 92.3135 232.629C111.771 220.924 122.416 242.406 134.219 225.286L161.084 186.319C165.678 179.655 169.442 172.796 160.819 165.265C152.462 157.96 158.964 152.897 145.89 143.839L80.4472 98.5022C73.7811 93.8841 64.6093 95.5667 60.0023 102.249C58.0924 105.019 57.3213 108.213 57.4758 111.34C52.3452 110.853 47.1045 113.013 43.9714 117.558C42.0665 120.321 41.2917 123.512 41.4451 126.632C36.3062 126.134 31.0557 128.293 27.9175 132.845C25.6392 136.15 24.9085 140.071 25.5478 143.753C21.2708 144.072 17.1632 146.19 14.5414 149.993Z" fill="#F5C620"/>
<path d="M66.1854 167.866L34.9802 146.247C30.7368 143.308 25.1855 142.825 20.4927 144.983C18.5603 145.874 17.7112 148.171 18.6008 150.114C19.4869 152.055 21.7829 152.899 23.7189 152.01C25.9459 150.98 28.5846 151.218 30.5975 152.612L62.5498 174.748C65.716 176.942 66.5115 181.307 64.3233 184.481C62.1352 187.655 57.7805 188.452 54.6143 186.259L33.2632 171.467C31.5114 170.254 29.1072 170.694 27.8966 172.45C26.6859 174.206 27.1251 176.616 28.8769 177.83L50.2316 192.624C56.8977 197.242 66.067 195.563 70.6739 188.881C73.243 185.154 73.7937 180.663 72.6801 176.604C76.427 175.949 79.9215 173.858 82.2475 170.484C84.8242 166.746 85.3714 162.237 84.2408 158.171C87.9707 157.511 91.4432 155.42 93.7642 152.053C96.5714 147.981 97.0204 142.985 95.4541 138.649C98.8308 137.824 101.943 135.86 104.068 132.777C108.675 126.095 107 116.903 100.334 112.285L80.4448 98.5058C76.2014 95.5661 70.649 95.077 65.9561 97.2356C64.0201 98.1238 63.171 100.42 64.057 102.361C64.9517 104.297 67.2377 105.156 69.1701 104.265C71.4043 103.239 74.0456 103.474 76.0585 104.868L95.9479 118.647C99.1142 120.841 99.9096 125.206 97.7215 128.38C95.5333 131.554 91.1787 132.351 88.0124 130.158L64.4163 113.811C60.1729 110.871 54.6144 110.383 49.9251 112.544C47.9866 113.436 47.1375 115.733 48.0261 117.67C48.9166 119.635 51.2103 120.467 53.1391 119.574C55.4079 118.529 57.9845 118.756 60.03 120.173L85.6462 137.92C88.8125 140.113 89.6054 144.482 87.4172 147.656C85.2291 150.83 80.8744 151.627 77.7082 149.434L48.3636 129.105C44.1202 126.165 38.5678 125.676 33.8749 127.834C31.9389 128.723 31.0898 131.019 31.9758 132.96C32.8716 134.902 35.1565 135.754 37.0889 134.864C39.3552 133.823 41.9317 134.05 43.9773 135.467L74.1234 156.352C77.2896 158.545 78.0851 162.91 75.8969 166.084C73.7088 169.258 69.3552 170.062 66.1854 167.866Z" fill="#AE682A"/>
<path d="M252.914 58.0495C256.816 51.7834 254.912 43.5332 248.662 39.6225C244.868 37.2484 240.351 37.031 236.51 38.6153C236.243 34.4602 234.064 30.4878 230.271 28.1144C224.02 24.203 215.791 26.1106 211.888 32.3778C211.335 33.2654 210.912 34.1958 210.589 35.1453C206.065 45.9162 210.491 63.0349 216.506 70.7389C226.052 72.7717 243.338 69.2396 251.001 60.4348C251.713 59.7279 252.36 58.9382 252.914 58.0495Z" fill="#DD2E44"/>
<path d="M320.963 178.855C321.888 176.835 322.275 174.718 322.258 172.624C324.839 152.776 299.102 142.474 263.708 125.167C257.79 122.275 264.454 116.768 273.669 102.189C279.663 92.7071 280.266 74.1911 269.335 69.163C251.312 60.8726 262.127 83.0992 230.059 111.012C212.924 125.926 198.72 106.623 190.061 125.538L170.353 168.593C166.983 175.955 164.464 183.365 174.261 189.281C183.758 195.016 178.231 201.134 192.676 207.778L264.978 241.036C272.342 244.423 281.084 241.17 284.463 233.787C285.864 230.726 286.07 227.447 285.376 224.395C290.513 223.981 295.3 220.941 297.599 215.921C298.996 212.868 299.206 209.59 298.515 206.544C303.662 206.14 308.459 203.1 310.761 198.071C312.432 194.42 312.472 190.432 311.205 186.917C315.362 185.858 319.04 183.057 320.963 178.855Z" fill="#F5C620"/>
<path d="M267.008 170.243L301.484 186.102C306.172 188.258 311.723 187.767 315.97 184.825C317.719 183.611 318.158 181.202 316.945 179.443C315.736 177.686 313.329 177.254 311.576 178.466C309.561 179.868 306.921 180.093 304.698 179.07L269.396 162.832C265.898 161.223 264.359 157.063 265.964 153.556C267.569 150.05 271.719 148.506 275.217 150.115L298.806 160.966C300.742 161.856 303.033 161.004 303.921 159.064C304.809 157.124 303.959 154.827 302.024 153.937L278.431 143.084C271.066 139.697 262.327 142.946 258.948 150.329C257.063 154.446 257.299 158.965 259.099 162.768C255.522 164.065 252.443 166.733 250.737 170.461C248.846 174.59 249.089 179.126 250.906 182.933C247.347 184.233 244.29 186.897 242.587 190.616C240.528 195.115 240.951 200.114 243.245 204.11C240.062 205.51 237.338 207.987 235.779 211.393C232.399 218.776 235.641 227.536 243.006 230.924L264.98 241.032C269.668 243.188 275.221 242.703 279.468 239.761C281.221 238.549 281.659 236.139 280.451 234.382C279.234 232.631 276.834 232.184 275.086 233.398C273.063 234.796 270.421 235.025 268.197 234.002L246.223 223.895C242.725 222.286 241.186 218.125 242.791 214.618C244.396 211.112 248.546 209.569 252.044 211.178L278.114 223.169C282.802 225.326 288.36 224.838 292.604 221.894C294.359 220.678 294.797 218.269 293.586 216.516C292.369 214.735 289.966 214.316 288.221 215.531C286.168 216.954 283.591 217.179 281.331 216.14L253.03 203.122C249.532 201.513 247.994 197.348 249.599 193.842C251.205 190.335 255.355 188.792 258.853 190.401L291.273 205.314C295.961 207.47 301.514 206.985 305.762 204.043C307.515 202.831 307.953 200.421 306.744 198.664C305.526 196.908 303.128 196.466 301.379 197.679C299.328 199.099 296.751 199.324 294.491 198.284L261.185 182.964C257.687 181.355 256.148 177.195 257.753 173.688C259.358 170.181 263.506 168.632 267.008 170.243Z" fill="#AE682A"/>
<path d="M119.059 159.293C142.741 159.293 161.94 140.048 161.94 116.308C161.94 92.5685 142.741 73.3235 119.059 73.3235C95.3773 73.3235 76.1792 92.5685 76.1792 116.308C76.1792 140.048 95.3773 159.293 119.059 159.293Z" fill="#EAB32C"/>
<path d="M214.909 159.293C238.591 159.293 257.789 140.048 257.789 116.308C257.789 92.5685 238.591 73.3235 214.909 73.3235C191.227 73.3235 172.029 92.5685 172.029 116.308C172.029 140.048 191.227 159.293 214.909 159.293Z" fill="#EAB32C"/>
<path d="M146.362 97.8703C139.985 89.6729 130.072 84.3832 118.903 84.3832C99.6676 84.3832 84.0642 100.025 84.0642 119.307C84.0642 133.33 92.3275 145.386 104.223 150.944C107.8 129.73 124.316 107.089 146.362 97.8703ZM215.066 84.3883C203.897 84.3883 193.979 89.678 187.607 97.8754C209.648 107.094 226.164 129.735 229.751 150.954C241.641 145.396 249.91 133.34 249.91 119.317C249.91 100.025 234.306 84.3883 215.066 84.3883Z" fill="#EA596E"/>
<path d="M247.7 182.52C237.611 131.722 190.528 149.649 166.984 149.649C143.441 149.649 96.3582 131.717 86.2687 182.52C79.7358 215.411 105.408 232.478 131.833 240.104C140.156 246.335 152.809 250.32 166.984 250.32C181.16 250.32 193.812 246.335 202.141 240.099C228.56 232.473 254.233 215.411 247.7 182.52Z" fill="white"/>
<path d="M230.548 159.293C230.548 214.92 202.09 189.635 166.984 189.635C131.878 189.635 103.421 214.92 103.421 159.293C103.421 129.967 131.878 93.5516 166.984 93.5516C202.09 93.5516 230.548 129.967 230.548 159.293Z" fill="#EAB32C"/>
<path d="M181.639 209.641C181.639 217.752 171.489 226.592 166.984 226.592C162.474 226.592 152.329 217.752 152.329 209.641C152.329 201.524 161.344 199.749 166.984 199.749C172.619 199.749 181.639 201.524 181.639 209.641Z" fill="#EA596E"/>
<path d="M255.343 221.51C228.883 205.6 193.015 210.511 191.497 210.723C191.426 210.733 191.381 210.779 191.31 210.789C190.901 210.865 190.538 211.032 190.16 211.198C189.928 211.305 189.691 211.375 189.484 211.512C189.176 211.709 188.944 211.977 188.687 212.24C188.48 212.448 188.263 212.625 188.097 212.862C187.915 213.125 187.814 213.424 187.683 213.722C187.547 214.035 187.39 214.334 187.325 214.678C187.305 214.759 187.249 214.819 187.234 214.905C187.189 215.183 187.264 215.436 187.264 215.709C187.259 215.957 187.184 216.19 187.219 216.448C187.229 216.529 187.279 216.584 187.295 216.66C187.36 217.009 187.501 217.317 187.633 217.636C187.754 217.939 187.854 218.243 188.031 218.511C188.172 218.733 188.369 218.895 188.541 219.092C188.808 219.386 189.065 219.669 189.388 219.891C189.58 220.023 189.807 220.099 190.019 220.205C190.392 220.387 190.755 220.559 191.174 220.645C191.25 220.66 191.305 220.711 191.381 220.726C191.663 220.776 219.813 225.667 233.575 244.054C234.564 245.384 236.077 246.077 237.616 246.077C238.67 246.077 239.729 245.748 240.637 245.065C242.867 243.391 243.321 240.221 241.646 237.991C236.057 230.511 228.666 225.014 221.341 220.953C230.825 222.177 241.228 224.822 250.152 230.188C250.964 230.678 251.862 230.911 252.745 230.911C254.46 230.911 256.13 230.036 257.073 228.458C258.506 226.051 257.729 222.946 255.343 221.51ZM145.943 218.496C146.114 218.233 146.21 217.934 146.331 217.641C146.462 217.317 146.609 217.014 146.674 216.665C146.689 216.584 146.74 216.523 146.755 216.443C146.79 216.175 146.715 215.922 146.71 215.664C146.71 215.406 146.78 215.158 146.735 214.9C146.725 214.819 146.669 214.764 146.654 214.683C146.579 214.334 146.427 214.02 146.281 213.702C146.155 213.413 146.054 213.12 145.877 212.867C145.716 212.63 145.499 212.453 145.297 212.245C145.04 211.977 144.798 211.714 144.49 211.507C144.288 211.38 144.051 211.31 143.829 211.203C143.451 211.032 143.083 210.87 142.669 210.794C142.598 210.779 142.548 210.733 142.477 210.723C140.959 210.511 105.086 205.595 78.6311 221.51C76.2399 222.946 75.468 226.051 76.9007 228.448C77.8491 230.026 79.5189 230.901 81.2291 230.901C82.1119 230.901 83.0099 230.668 83.8221 230.177C92.7412 224.812 103.143 222.172 112.622 220.948C105.303 225.004 97.9171 230.506 92.3275 237.98C90.6527 240.211 91.1067 243.381 93.3365 245.055C94.2445 245.738 95.3089 246.067 96.3582 246.067C97.8918 246.067 99.4053 245.369 100.399 244.044C114.106 225.727 142.321 220.761 142.603 220.716C142.679 220.701 142.729 220.655 142.805 220.635C143.194 220.554 143.532 220.387 143.885 220.22C144.127 220.109 144.384 220.023 144.601 219.871C144.899 219.669 145.126 219.401 145.368 219.143C145.565 218.931 145.781 218.744 145.943 218.496Z" fill="#C1694F"/>
<path d="M126.626 169.407C126.626 169.407 126.626 159.293 136.716 159.293C146.805 159.293 146.805 169.407 146.805 169.407V179.521C146.805 179.521 146.805 189.635 136.716 189.635C126.626 189.635 126.626 179.521 126.626 179.521V169.407ZM187.163 169.407C187.163 169.407 187.163 159.293 197.253 159.293C207.342 159.293 207.342 169.407 207.342 169.407V179.521C207.342 179.521 207.342 189.635 197.253 189.635C187.163 189.635 187.163 179.521 187.163 179.521V169.407Z" fill="#272B2B"/>
<path d="M274.397 270.481C272.204 279.564 263.081 285.145 254.02 282.947C244.958 280.748 239.391 271.602 241.584 262.519C243.777 253.436 252.901 247.855 261.962 250.053C271.023 252.252 276.591 261.398 274.397 270.481Z" fill="#FFCC4D"/>
<path d="M257.142 270.017C254.438 269.361 252.72 268.609 250.606 267.639C250.121 267.419 249.113 267.276 248.751 268.773C248.029 271.766 250.555 276.338 255.335 277.498C260.115 278.658 264.448 275.75 265.171 272.757C265.532 271.26 264.569 270.923 264.039 270.898C261.716 270.792 259.846 270.673 257.142 270.017Z" fill="#664500"/>
<path d="M260.007 252.752C259.76 250.341 257.613 248.586 255.207 248.831C253.747 248.979 252.531 249.837 251.853 251.019C250.95 249.998 249.588 249.406 248.13 249.555C245.726 249.802 243.973 251.956 244.219 254.367C244.255 254.708 244.332 255.036 244.438 255.347C245.426 259.051 250.009 262.598 253.113 263.382C255.994 261.985 259.768 257.582 259.989 253.756C260.031 253.429 260.04 253.093 260.007 252.752ZM262.468 253.349C263.787 251.318 266.499 250.742 268.525 252.062C269.756 252.864 270.446 254.183 270.51 255.546C271.779 255.052 273.26 255.15 274.489 255.951C276.515 257.272 277.09 259.991 275.773 262.023C275.585 262.31 275.368 262.566 275.13 262.794C272.562 265.635 266.868 266.689 263.75 265.962C261.824 263.399 260.478 257.755 262.026 254.25C262.137 253.94 262.283 253.637 262.468 253.349Z" fill="#DD2E44"/>
<path d="M171.082 83.118L165.044 70.5442L158.495 80.3534L171.082 83.118Z" fill="#F4900C"/>
<path d="M178.188 70.9872L167.711 83.3837L182.533 86.6391L178.188 70.9872Z" fill="#F4900C"/>
<path d="M179.723 85.0159L190.452 76.1249L192.309 87.7805L179.723 85.0159Z" fill="#F4900C"/>
<path d="M187.917 84.5794L185.404 70.1863L175.877 81.936L175.868 81.9376L175.861 81.9314L172.108 67.2648L163.821 79.2868C161.36 73.5774 158.757 69.6945 158.757 69.6945C158.757 69.6945 157.555 84.5065 154.524 98.3735L188.401 105.814C191.432 91.9475 196.519 77.9887 196.519 77.9887C196.519 77.9887 192.534 80.4246 187.917 84.5794Z" fill="#FFCC4D"/>
<path d="M173.223 93.8062C175.523 94.3114 177.796 92.8518 178.3 90.5461C178.804 88.2405 177.348 85.9618 175.048 85.4566C172.748 84.9514 170.475 86.411 169.971 88.7166C169.467 91.0223 170.923 93.301 173.223 93.8062Z" fill="#5C913B"/>
<path d="M183.144 94.4715C184.648 94.8019 186.135 93.8473 186.464 92.3394C186.794 90.8315 185.842 89.3412 184.338 89.0108C182.833 88.6804 181.347 89.6349 181.017 91.1429C180.687 92.6508 181.64 94.1411 183.144 94.4715Z" fill="#981CEB"/>
<path d="M190.464 95.574C191.703 95.846 192.927 95.0601 193.198 93.8184C193.469 92.5768 192.685 91.3498 191.447 91.0777C190.208 90.8057 188.984 91.5916 188.713 92.8333C188.441 94.0749 189.225 95.3019 190.464 95.574Z" fill="#DD2E44"/>
<path d="M163.932 90.2517C165.437 90.5821 166.923 89.6275 167.253 88.1196C167.582 86.6116 166.63 85.1214 165.126 84.7909C163.622 84.4605 162.135 85.4151 161.805 86.9231C161.476 88.431 162.428 89.9213 163.932 90.2517Z" fill="#981CEB"/>
<path d="M156.823 88.1848C158.061 88.4569 159.286 87.6709 159.557 86.4293C159.828 85.1876 159.044 83.9606 157.806 83.6885C156.567 83.4165 155.343 84.2025 155.072 85.4441C154.8 86.6857 155.584 87.9128 156.823 88.1848Z" fill="#DD2E44"/>
<path d="M188.154 106.946L154.276 99.5055C153.653 99.3686 153.258 98.7514 153.394 98.1254C153.531 97.4994 154.148 97.1046 154.771 97.2415L188.648 104.682C189.273 104.82 189.667 105.437 189.53 106.063C189.393 106.689 188.778 107.084 188.154 106.946ZM189.016 103L155.139 95.5593C154.515 95.4224 154.12 94.8053 154.257 94.1793C154.394 93.5533 155.01 93.1584 155.634 93.2953L189.511 100.736C190.135 100.874 190.53 101.49 190.393 102.116C190.256 102.742 189.641 103.138 189.016 103Z" fill="#FFAC33"/>
<path d="M158.597 71.3286C159.475 71.5214 160.342 70.9645 160.534 70.0849C160.726 69.2053 160.171 68.3359 159.293 68.1432C158.416 67.9505 157.549 68.5073 157.356 69.3869C157.164 70.2666 157.72 71.1359 158.597 71.3286Z" fill="#FFCC4D"/>
<path d="M164.75 71.8934C165.493 72.0567 166.228 71.585 166.391 70.8398C166.553 70.0945 166.083 69.358 165.339 69.1948C164.596 69.0315 163.861 69.5032 163.698 70.2484C163.536 70.9937 164.006 71.7301 164.75 71.8934Z" fill="#F4900C"/>
<path d="M171.666 69.2855C172.779 69.5298 173.879 68.8238 174.122 67.7085C174.366 66.5932 173.662 65.4909 172.549 65.2465C171.437 65.0021 170.337 65.7082 170.093 66.8235C169.849 67.9388 170.554 69.0411 171.666 69.2855Z" fill="#FFCC4D"/>
<path d="M195.982 79.54C196.859 79.7328 197.727 79.1759 197.919 78.2963C198.111 77.4167 197.556 76.5473 196.678 76.3546C195.801 76.1619 194.933 76.7187 194.741 77.5983C194.549 78.478 195.104 79.3473 195.982 79.54Z" fill="#FFCC4D"/>
<path d="M190.158 77.4742C190.901 77.6375 191.636 77.1658 191.799 76.4205C191.961 75.6753 191.491 74.9388 190.747 74.7755C190.004 74.6123 189.269 75.084 189.106 75.8292C188.944 76.5745 189.414 77.3109 190.158 77.4742Z" fill="#F4900C"/>
<path d="M184.962 72.2058C186.075 72.4502 187.174 71.7441 187.418 70.6288C187.662 69.5135 186.958 68.4112 185.845 68.1668C184.732 67.9224 183.633 68.6285 183.389 69.7438C183.145 70.8591 183.849 71.9614 184.962 72.2058Z" fill="#FFCC4D"/>
<path d="M177.747 73.0067C178.859 73.2511 179.959 72.545 180.203 71.4297C180.447 70.3144 179.742 69.2121 178.63 68.9677C177.517 68.7233 176.417 69.4294 176.174 70.5447C175.93 71.6601 176.634 72.7623 177.747 73.0067Z" fill="#F4900C"/>
</g>
<defs>
<clipPath id="clip0">
<rect width="335" height="335" fill="white"/>
</clipPath>
</defs>
</svg>
