<svg width="411" height="410" viewBox="0 0 411 410" fill="none" xmlns="http://www.w3.org/2000/svg">
<rect width="411" height="410" fill="white"/>
<path d="M59.7528 57.7802H127.401C139.848 57.7802 148.563 56.6076 148.563 69.0549V46.5055C148.563 34.0583 139.848 23.9562 127.401 23.9562H37.2034C14.6541 23.9562 -3.19375 47.9149 3.37939 80.3296C3.37939 80.3296 23.5723 186.03 24.993 192.603C28.7474 209.988 48.9404 226.9 70.5539 226.9H149.003C161.462 226.9 148.563 205.524 148.563 193.076V170.527C148.563 182.974 139.848 193.076 127.401 193.076H82.3021C69.8549 193.076 61.6357 181.328 59.7528 170.527C57.8699 159.726 41.8937 87.8498 41.8937 87.8498C38.1392 66.2362 47.2943 57.7802 59.7528 57.7802ZM350.775 57.7802H283.127C270.679 57.7802 250.036 56.6076 250.036 69.0549V46.5055C250.036 34.0583 270.679 23.9562 283.127 23.9562H373.324C395.874 23.9562 413.733 47.9149 407.148 80.3296C407.148 80.3296 388.737 186.526 387.181 193.076C383.19 209.988 364.158 226.9 342.082 226.9H261.513C249.066 226.9 250.036 205.524 250.036 193.076V170.527C250.036 182.974 270.679 193.076 283.127 193.076H328.225C340.673 193.076 348.903 181.328 350.775 170.527C352.646 159.726 368.634 87.8498 368.634 87.8498C372.377 66.2362 363.233 57.7802 350.775 57.7802V57.7802ZM236.867 249.45C236.867 171.001 206.324 249.45 206.324 249.45C206.324 249.45 172.5 171.001 172.5 249.45C172.5 327.899 135.395 362.197 135.395 362.197H273.983C273.972 362.197 236.867 327.899 236.867 249.45Z" fill="#F2CB07"/>
<path d="M330.345 75.5604C330.345 151.946 254.015 280.669 206.324 280.669C158.62 280.669 82.3021 151.946 82.3021 75.5604C82.3021 16.9884 93.5768 4.3157 116.126 4.3157C131.618 4.3157 184.056 4.01129 206.324 4.01129L285.246 4.00001C318.135 3.98874 330.345 11.7119 330.345 75.5604V75.5604Z" fill="#F2CB07"/>
<path d="M306.409 373.471C306.409 385.919 308.968 396.021 296.521 396.021H116.126C103.668 396.021 103.465 385.919 103.465 373.471V362.197C103.465 349.749 116.588 339.647 128.337 339.647H285.246C296.995 339.647 306.409 349.749 306.409 362.197V373.471V373.471Z" fill="#592202"/>
<path d="M328.958 391.793C328.958 400.361 330.819 407.295 314.842 407.295H97.8048C83.2379 407.295 80.9153 400.361 80.9153 391.793V388.974C80.9153 380.405 89.236 373.471 97.8048 373.471H314.842C323.4 373.471 328.958 380.405 328.958 388.974V391.793V391.793Z" fill="#592202"/>
<circle cx="204.052" cy="193.179" r="165.216" fill="url(#paint0_radial)"/>
<path d="M271.36 280.658C269.063 275.606 263.107 273.375 258.056 275.672C254.99 277.066 252.973 279.809 252.365 282.876C249.654 281.318 246.259 281.036 243.195 282.43C238.144 284.726 235.911 290.681 238.208 295.733C238.533 296.447 238.94 297.103 239.399 297.699C244.257 305.01 256.815 309.348 264.142 308.773C269.389 303.63 274.377 291.314 272.057 282.851C271.91 282.11 271.685 281.372 271.36 280.658ZM277.732 255.006C276.141 251.508 272.016 249.961 268.517 251.552C266.393 252.518 264.996 254.419 264.575 256.545C262.697 255.466 260.345 255.268 258.223 256.233C254.724 257.824 253.178 261.95 254.769 265.449C254.995 265.945 255.277 266.397 255.594 266.81C258.959 271.875 267.658 274.879 272.731 274.48C276.365 270.917 279.821 262.388 278.216 256.524C278.113 256.013 277.958 255.503 277.732 255.006V255.006Z" fill="#DD2E44"/>
<path d="M115.859 304.241C122.142 310.524 132.329 310.524 138.612 304.241C144.895 297.958 144.895 287.771 138.612 281.488C132.329 275.205 122.142 275.205 115.859 281.488C109.576 287.771 109.576 297.958 115.859 304.241Z" fill="#FFCB4C"/>
<path d="M122.22 293.228C122.201 293.053 122.231 292.872 122.322 292.708C122.54 292.311 123.023 292.181 123.4 292.42C127.114 294.767 127.559 298.403 127.577 298.557C127.629 299.019 127.318 299.43 126.886 299.479C126.455 299.527 126.064 299.194 126.011 298.734C125.993 298.604 125.609 295.759 122.608 293.862C122.384 293.719 122.248 293.481 122.22 293.228V293.228Z" fill="#65471B"/>
<path d="M126.102 287.465C126.888 288.25 128.32 288.091 129.302 287.11C130.283 286.128 130.443 284.696 129.657 283.91C128.872 283.125 127.439 283.284 126.458 284.266C125.476 285.247 125.317 286.68 126.102 287.465Z" fill="#65471B"/>
<path d="M132.924 295.708C133.71 296.494 135.142 296.335 136.124 295.353C137.105 294.371 137.264 292.939 136.479 292.154C135.694 291.368 134.261 291.527 133.28 292.509C132.298 293.491 132.139 294.923 132.924 295.708Z" fill="#65471B"/>
<path d="M114.617 304.514C114.617 304.514 115.739 305.085 116.479 304.565C117.245 304.031 116.842 303.367 116.842 303.367C116.842 303.367 117.678 303.924 118.547 303.23C119.366 302.576 118.883 301.742 118.883 301.742C118.883 301.742 119.8 302.123 120.593 301.392C121.26 300.776 120.883 299.77 120.883 299.77C120.883 299.77 125.071 302.325 125.498 302.591C125.924 302.856 126.793 303.063 127.347 302.173C127.903 301.283 127.29 300.619 126.883 300.366C126.475 300.112 121.322 296.901 119.543 295.794L118.356 295.055C117.91 294.778 117.905 294.456 118.429 294.442C119.127 294.423 119.742 294.243 120.476 293.661C121.248 293.048 121.868 291.957 122.066 291.491C122.432 290.624 122.497 289.715 122.176 289.06C121.676 288.038 120.66 287.973 120.1 289.072C119.263 290.717 117.98 291.47 116.669 291.388C113.587 291.193 111.795 291.46 110.109 294.16C108.271 297.107 109.106 301.022 112.052 302.86L114.617 304.514Z" fill="#F19020"/>
<path d="M128.549 279.902C128.498 279.733 128.496 279.549 128.554 279.373C128.696 278.942 129.148 278.726 129.561 278.892C133.642 280.521 134.742 284.015 134.787 284.163C134.922 284.608 134.694 285.07 134.277 285.197C133.861 285.324 133.416 285.067 133.279 284.625C133.239 284.501 132.342 281.771 129.046 280.455C128.801 280.356 128.623 280.146 128.549 279.902V279.902ZM134.16 290.532C134.121 290.362 134.131 290.178 134.202 290.006C134.372 289.585 134.837 289.401 135.24 289.594C139.2 291.498 140.062 295.058 140.096 295.208C140.2 295.66 139.941 296.107 139.517 296.206C139.094 296.305 138.666 296.018 138.56 295.568C138.528 295.439 137.82 292.658 134.62 291.12C134.381 291.003 134.219 290.781 134.16 290.532V290.532Z" fill="#65471B"/>
<path d="M133.988 83.4489C138.484 91.1074 135.922 100.961 128.263 105.458C120.605 109.954 110.751 107.392 106.254 99.7331C101.758 92.0754 104.321 82.2206 111.979 77.7242C119.637 73.2274 129.491 75.7912 133.988 83.4489Z" fill="#FFCC4D"/>
<path d="M124.91 99.7479C128.064 97.8963 129.012 93.6563 127.028 90.2776C125.044 86.8989 120.88 85.6609 117.726 87.5125C114.573 89.3641 113.624 93.6042 115.608 96.9829C117.592 100.362 121.757 101.6 124.91 99.7479Z" fill="#664500"/>
<path d="M128.733 97.9106C128.733 97.9106 129.2 96.845 128.094 96.515C126.988 96.1851 126.797 97.3338 126.797 97.3338L125.265 102.474C125.11 102.34 124.535 102.088 124.363 101.965L126.487 94.8316C126.487 94.8316 126.956 93.7655 125.847 93.4357C124.741 93.1066 124.549 94.2541 124.549 94.2541L122.55 100.963C122.372 100.894 121.915 100.743 121.731 100.678L124.049 92.9001C124.049 92.9001 124.516 91.8337 123.409 91.505C122.303 91.1751 122.112 92.323 122.112 92.323L119.792 100.1C119.6 100.054 119.001 99.8964 118.811 99.8574L120.977 92.5877C120.977 92.5877 121.444 91.5218 120.338 91.1927C119.231 90.8632 119.04 92.0106 119.04 92.0106L116.749 99.6971L116.566 100.314L116.486 100.588C116.486 100.588 116.403 101.452 115.685 101.254L115.196 96.9806C115.196 96.9806 115.154 95.8267 114.001 95.8667C112.846 95.9077 112.887 97.0615 112.887 97.0615L112.847 100.11C112.83 101.319 112.79 102.533 112.603 103.727C112.078 107.1 114.111 110.426 117.474 111.429C121.142 112.522 125.002 110.434 126.095 106.767L126.26 106.212L128.733 97.9106V97.9106Z" fill="#F4900C"/>
<path d="M109.194 86.0286C107.644 87.6013 107.296 89.2982 107.276 89.4035C107.178 89.9163 107.514 90.4122 108.026 90.5116C108.54 90.6106 109.035 90.2757 109.134 89.7616C109.157 89.6528 109.76 86.9228 113.158 85.7619C113.654 85.5928 113.917 85.0545 113.748 84.5613C113.579 84.0669 113.041 83.8025 112.547 83.9719C111.053 84.4809 109.972 85.2393 109.194 86.0286V86.0286ZM120.588 79.3395C119.52 79.6345 118.331 80.2085 117.156 81.2645C116.768 81.6142 116.736 82.212 117.086 82.6002C117.436 82.9878 118.033 83.0201 118.422 82.6704C121.094 80.2653 123.769 81.0716 123.881 81.1069C124.375 81.2631 124.909 80.9901 125.069 80.4952C125.228 80.0003 124.962 79.4709 124.468 79.3078C124.366 79.2752 122.716 78.7526 120.588 79.3395V79.3395Z" fill="#664500"/>
<path d="M51.6079 175.528C50.3472 177.352 49.5994 179.365 49.2531 181.424C43.2736 200.475 66.8348 215.065 98.6935 238.213C104.021 242.082 96.5044 246.336 84.9039 259.058C77.3583 267.332 73.5571 285.418 83.4511 292.255C99.7646 303.53 92.9643 279.816 129.38 257.963C148.837 246.286 159.483 267.716 171.286 250.637L198.15 211.765C202.745 205.117 206.508 198.275 197.885 190.762C189.528 183.476 196.031 178.425 182.956 169.389L117.514 124.162C110.848 119.555 101.676 121.234 97.0689 127.9C95.1589 130.663 94.3878 133.85 94.5423 136.968C89.4118 136.483 84.171 138.638 81.0379 143.171C79.133 145.928 78.3582 149.111 78.5116 152.224C73.3727 151.727 68.1222 153.881 64.9841 158.422C62.7057 161.718 61.975 165.629 62.6143 169.303C58.3373 169.621 54.2297 171.734 51.6079 175.528V175.528Z" fill="#F5C620"/>
<path d="M103.252 193.357L72.0466 171.791C67.8032 168.859 62.2519 168.377 57.5591 170.53C55.6267 171.419 54.7776 173.71 55.6672 175.648C56.5533 177.584 58.8493 178.426 60.7853 177.54C63.0123 176.512 65.651 176.749 67.6639 178.141L99.6162 200.223C102.782 202.411 103.578 206.765 101.39 209.932C99.2016 213.098 94.8469 213.893 91.6807 211.705L70.3296 196.95C68.5778 195.739 66.1736 196.178 64.963 197.93C63.7523 199.682 64.1915 202.086 65.9433 203.296L87.298 218.055C93.9641 222.662 103.133 220.987 107.74 214.321C110.309 210.603 110.86 206.123 109.746 202.074C113.493 201.421 116.988 199.334 119.314 195.969C121.891 192.24 122.438 187.742 121.307 183.686C125.037 183.027 128.51 180.941 130.831 177.583C133.638 173.521 134.087 168.536 132.52 164.211C135.897 163.389 139.009 161.429 141.135 158.353C145.742 151.687 144.067 142.518 137.401 137.911L117.511 124.166C113.268 121.233 107.715 120.745 103.023 122.899C101.087 123.785 100.237 126.076 101.123 128.012C102.018 129.943 104.304 130.799 106.236 129.911C108.471 128.888 111.112 129.122 113.125 130.513L133.014 144.258C136.181 146.446 136.976 150.801 134.788 153.967C132.6 157.133 128.245 157.929 125.079 155.741L101.483 139.434C97.2393 136.501 91.6808 136.014 86.9915 138.17C85.053 139.06 84.2039 141.351 85.0925 143.283C85.983 145.244 88.2767 146.073 90.2055 145.182C92.4743 144.14 95.0509 144.367 97.0964 145.78L122.713 163.484C125.879 165.672 126.672 170.03 124.484 173.196C122.295 176.363 117.941 177.158 114.775 174.97L85.43 154.69C81.1866 151.757 75.6342 151.269 70.9413 153.423C69.0053 154.309 68.1562 156.6 69.0422 158.536C69.938 160.473 72.2229 161.324 74.1553 160.435C76.4216 159.397 78.9981 159.623 81.0437 161.037L111.19 181.871C114.356 184.059 115.151 188.414 112.963 191.58C110.775 194.746 106.422 195.548 103.252 193.357V193.357Z" fill="#AE682A"/>
<path d="M289.98 83.8077C293.882 77.5569 291.978 69.3268 285.728 65.4256C281.934 63.0573 277.417 62.8404 273.576 64.4209C273.309 60.2759 271.13 56.3131 267.337 53.9455C261.086 50.0436 252.857 51.9466 248.954 58.1986C248.402 59.084 247.979 60.0121 247.655 60.9593C243.132 71.704 247.557 88.781 253.573 96.4663C263.118 98.4942 280.405 94.9706 288.068 86.1873C288.779 85.4821 289.427 84.6943 289.98 83.8077V83.8077Z" fill="#DD2E44"/>
<path d="M358.03 204.32C358.954 202.304 359.341 200.192 359.325 198.104C361.906 178.304 336.169 168.027 300.775 150.762C294.857 147.877 301.52 142.383 310.735 127.84C316.73 118.381 317.333 99.9101 306.402 94.8943C288.379 86.624 299.193 108.797 267.125 136.641C249.991 151.519 235.786 132.263 227.128 151.132L207.419 194.082C204.049 201.427 201.531 208.818 211.327 214.72C220.824 220.441 215.298 226.544 229.743 233.172L302.044 266.349C309.409 269.728 318.15 266.483 321.529 259.118C322.93 256.064 323.137 252.793 322.443 249.748C327.58 249.336 332.367 246.303 334.665 241.295C336.062 238.249 336.273 234.979 335.581 231.941C340.728 231.538 345.525 228.505 347.827 223.488C349.498 219.846 349.539 215.868 348.271 212.361C352.428 211.305 356.106 208.511 358.03 204.32V204.32Z" fill="#F5C620"/>
<path d="M304.075 195.729L338.55 211.548C343.238 213.699 348.789 213.21 353.037 210.274C354.786 209.064 355.224 206.66 354.011 204.906C352.802 203.153 350.395 202.723 348.642 203.931C346.628 205.33 343.988 205.555 341.764 204.534L306.463 188.336C302.965 186.731 301.425 182.58 303.03 179.082C304.635 175.584 308.786 174.045 312.284 175.65L335.873 186.474C337.808 187.362 340.1 186.512 340.988 184.577C341.876 182.641 341.026 180.35 339.09 179.462L315.498 168.636C308.133 165.256 299.394 168.498 296.014 175.863C294.13 179.97 294.365 184.478 296.165 188.272C292.588 189.565 289.509 192.227 287.803 195.945C285.913 200.065 286.155 204.59 287.973 208.388C284.414 209.684 281.356 212.341 279.654 216.052C277.594 220.54 278.018 225.526 280.311 229.513C277.129 230.91 274.404 233.38 272.845 236.778C269.466 244.143 272.707 252.882 280.072 256.262L302.046 266.345C306.734 268.496 312.287 268.012 316.535 265.077C318.287 263.868 318.726 261.464 317.517 259.712C316.301 257.965 313.901 257.519 312.152 258.729C310.129 260.124 307.488 260.353 305.264 259.332L283.29 249.249C279.791 247.644 278.252 243.494 279.857 239.996C281.462 236.498 285.613 234.958 289.111 236.563L315.18 248.526C319.868 250.677 325.427 250.191 329.67 247.254C331.425 246.041 331.863 243.637 330.653 241.889C329.435 240.112 327.032 239.694 325.288 240.906C323.234 242.326 320.657 242.55 318.398 241.513L290.096 228.527C286.598 226.922 285.061 222.768 286.666 219.269C288.271 215.771 292.421 214.232 295.919 215.837L328.34 230.714C333.028 232.865 338.581 232.381 342.828 229.446C344.581 228.237 345.019 225.833 343.811 224.08C342.592 222.328 340.194 221.887 338.446 223.098C336.394 224.514 333.817 224.738 331.557 223.701L298.252 208.419C294.753 206.813 293.214 202.663 294.819 199.165C296.424 195.667 300.572 194.122 304.075 195.729V195.729Z" fill="#AE682A"/>
<path d="M156.126 184.805C179.808 184.805 199.006 165.607 199.006 141.925C199.006 118.243 179.808 99.0446 156.126 99.0446C132.444 99.0446 113.246 118.243 113.246 141.925C113.246 165.607 132.444 184.805 156.126 184.805Z" fill="#EAB32C"/>
<path d="M251.976 184.805C275.658 184.805 294.856 165.607 294.856 141.925C294.856 118.243 275.658 99.0446 251.976 99.0446C228.294 99.0446 209.095 118.243 209.095 141.925C209.095 165.607 228.294 184.805 251.976 184.805Z" fill="#EAB32C"/>
<path d="M183.428 123.532C177.051 115.354 167.138 110.077 155.969 110.077C136.734 110.077 121.13 125.681 121.13 144.916C121.13 158.905 129.394 170.932 141.289 176.476C144.866 155.314 161.382 132.728 183.428 123.532V123.532ZM252.132 110.082C240.963 110.082 231.045 115.359 224.674 123.537C246.714 132.733 263.23 155.319 266.817 176.486C278.708 170.942 286.976 158.915 286.976 144.926C286.976 125.681 271.373 110.082 252.132 110.082V110.082Z" fill="#EA596E"/>
<path d="M284.766 207.975C274.677 157.301 227.594 175.185 204.051 175.185C180.507 175.185 133.425 157.296 123.335 207.975C116.802 240.786 142.475 257.812 168.899 265.42C177.223 271.635 189.875 275.61 204.051 275.61C218.226 275.61 230.879 271.635 239.207 265.415C265.627 257.807 291.299 240.786 284.766 207.975Z" fill="white"/>
<path d="M267.614 184.805C267.614 240.297 239.157 215.073 204.051 215.073C168.944 215.073 140.487 240.297 140.487 184.805C140.487 155.551 168.944 119.224 204.051 119.224C239.157 119.224 267.614 155.551 267.614 184.805Z" fill="#EAB32C"/>
<path d="M218.706 235.03C218.706 243.122 208.556 251.94 204.051 251.94C199.541 251.94 189.396 243.122 189.396 235.03C189.396 226.934 198.411 225.163 204.051 225.163C209.686 225.163 218.706 226.934 218.706 235.03Z" fill="#EA596E"/>
<path d="M292.409 246.87C265.95 231 230.082 235.898 228.563 236.11C228.492 236.12 228.447 236.165 228.376 236.175C227.968 236.251 227.605 236.418 227.226 236.584C226.994 236.69 226.757 236.761 226.55 236.897C226.242 237.094 226.01 237.361 225.753 237.623C225.546 237.83 225.329 238.007 225.163 238.244C224.981 238.506 224.88 238.804 224.749 239.101C224.613 239.414 224.457 239.712 224.391 240.055C224.371 240.136 224.315 240.196 224.3 240.282C224.255 240.559 224.331 240.812 224.331 241.084C224.325 241.331 224.25 241.563 224.285 241.821C224.295 241.901 224.346 241.957 224.361 242.032C224.426 242.38 224.568 242.688 224.699 243.006C224.82 243.309 224.921 243.611 225.097 243.879C225.239 244.101 225.435 244.262 225.607 244.459C225.874 244.752 226.131 245.034 226.454 245.256C226.646 245.387 226.873 245.463 227.085 245.569C227.458 245.75 227.821 245.922 228.24 246.008C228.316 246.023 228.371 246.073 228.447 246.088C228.73 246.139 256.879 251.017 270.641 269.36C271.63 270.686 273.143 271.378 274.682 271.378C275.736 271.378 276.796 271.05 277.704 270.369C279.934 268.699 280.388 265.536 278.713 263.311C273.123 255.85 265.733 250.366 258.408 246.315C267.892 247.536 278.294 250.175 287.218 255.527C288.03 256.016 288.928 256.248 289.811 256.248C291.526 256.248 293.196 255.376 294.139 253.802C295.572 251.4 294.795 248.303 292.409 246.87V246.87ZM183.009 243.864C183.181 243.601 183.277 243.304 183.398 243.011C183.529 242.688 183.675 242.386 183.741 242.037C183.756 241.957 183.806 241.896 183.821 241.815C183.857 241.548 183.781 241.296 183.776 241.039C183.776 240.781 183.847 240.534 183.801 240.277C183.791 240.196 183.736 240.141 183.72 240.06C183.645 239.712 183.493 239.399 183.347 239.081C183.221 238.794 183.12 238.501 182.944 238.249C182.782 238.012 182.565 237.835 182.363 237.628C182.106 237.361 181.864 237.099 181.556 236.892C181.354 236.766 181.117 236.695 180.895 236.589C180.517 236.418 180.149 236.256 179.735 236.181C179.665 236.165 179.614 236.12 179.543 236.11C178.025 235.898 142.152 230.995 115.697 246.87C113.306 248.303 112.534 251.4 113.967 253.792C114.915 255.366 116.585 256.238 118.295 256.238C119.178 256.238 120.076 256.006 120.888 255.517C129.807 250.164 140.21 247.531 149.689 246.31C142.369 250.356 134.983 255.845 129.394 263.301C127.719 265.526 128.173 268.689 130.403 270.359C131.311 271.04 132.375 271.367 133.425 271.367C134.958 271.367 136.472 270.671 137.465 269.35C151.172 251.078 179.387 246.124 179.67 246.078C179.745 246.063 179.796 246.018 179.871 245.998C180.26 245.917 180.598 245.75 180.951 245.584C181.193 245.473 181.45 245.387 181.667 245.236C181.965 245.034 182.192 244.767 182.434 244.509C182.631 244.297 182.848 244.111 183.009 243.864V243.864Z" fill="#C1694F"/>
<path d="M163.693 194.894C163.693 194.894 163.693 184.805 173.782 184.805C183.872 184.805 183.872 194.894 183.872 194.894V204.984C183.872 204.984 183.872 215.073 173.782 215.073C163.693 215.073 163.693 204.984 163.693 204.984V194.894ZM224.23 194.894C224.23 194.894 224.23 184.805 234.319 184.805C244.409 184.805 244.409 194.894 244.409 194.894V204.984C244.409 204.984 244.409 215.073 234.319 215.073C224.23 215.073 224.23 204.984 224.23 204.984V194.894Z" fill="#272B2B"/>
<path d="M311.464 295.722C309.271 304.783 300.147 310.351 291.086 308.158C282.025 305.965 276.457 296.841 278.65 287.78C280.843 278.719 289.967 273.151 299.028 275.344C308.089 277.537 313.657 286.661 311.464 295.722Z" fill="#FFCC4D"/>
<path d="M294.208 295.259C291.504 294.605 289.786 293.855 287.672 292.887C287.187 292.668 286.179 292.526 285.817 294.019C285.095 297.004 287.622 301.566 292.401 302.723C297.181 303.88 301.514 300.978 302.237 297.993C302.598 296.5 301.636 296.164 301.105 296.139C298.782 296.033 296.912 295.914 294.208 295.259Z" fill="#664500"/>
<path d="M297.073 278.037C296.827 275.631 294.679 273.88 292.273 274.125C290.813 274.273 289.598 275.128 288.92 276.308C288.017 275.29 286.655 274.699 285.196 274.847C282.792 275.093 281.039 277.242 281.286 279.648C281.321 279.988 281.398 280.315 281.504 280.625C282.493 284.32 287.075 287.859 290.179 288.64C293.061 287.247 296.834 282.855 297.056 279.038C297.098 278.712 297.107 278.377 297.073 278.037V278.037ZM299.534 278.632C300.853 276.606 303.565 276.031 305.592 277.349C306.822 278.148 307.512 279.464 307.577 280.824C308.845 280.331 310.327 280.428 311.556 281.227C313.581 282.546 314.157 285.258 312.839 287.285C312.651 287.571 312.434 287.827 312.197 288.054C309.628 290.888 303.935 291.94 300.816 291.215C298.891 288.658 297.544 283.027 299.093 279.531C299.203 279.222 299.349 278.919 299.534 278.632V278.632Z" fill="#DD2E44"/>
<path d="M198.36 74.4653L183.527 55.5224L176.091 74.4653H198.36Z" fill="#F4900C"/>
<path d="M205.881 51.4066L192.768 76.1595H218.991L205.881 51.4066Z" fill="#F4900C"/>
<path d="M213.649 74.4653L228.482 55.5224L235.918 74.4653H213.649Z" fill="#F4900C"/>
<path d="M227.321 70.699L217.766 47.3886L206.018 70.701L206.004 70.707L205.99 70.699L194.242 47.3866L184.688 70.699C178.426 61.9938 172.598 56.4175 172.598 56.4175C172.598 56.4175 176.035 81.8078 176.035 106.283H235.974C235.974 81.8078 239.411 56.4175 239.411 56.4175C239.411 56.4175 233.582 61.9938 227.321 70.699V70.699Z" fill="#FFCC4D"/>
<path d="M205.918 91.6738C209.988 91.6738 213.287 88.3748 213.287 84.3053C213.287 80.2358 209.988 76.9368 205.918 76.9368C201.849 76.9368 198.55 80.2358 198.55 84.3053C198.55 88.3748 201.849 91.6738 205.918 91.6738Z" fill="#5C913B"/>
<path d="M222.913 89.1244C225.575 89.1244 227.732 86.9668 227.732 84.3052C227.732 81.6437 225.575 79.4861 222.913 79.4861C220.252 79.4861 218.094 81.6437 218.094 84.3052C218.094 86.9668 220.252 89.1244 222.913 89.1244Z" fill="#981CEB"/>
<path d="M235.678 88.2732C237.87 88.2732 239.646 86.4967 239.646 84.3052C239.646 82.1138 237.87 80.3372 235.678 80.3372C233.487 80.3372 231.71 82.1138 231.71 84.3052C231.71 86.4967 233.487 88.2732 235.678 88.2732Z" fill="#DD2E44"/>
<path d="M188.922 89.1244C191.583 89.1244 193.741 86.9668 193.741 84.3052C193.741 81.6437 191.583 79.4861 188.922 79.4861C186.26 79.4861 184.103 81.6437 184.103 84.3052C184.103 86.9668 186.26 89.1244 188.922 89.1244Z" fill="#981CEB"/>
<path d="M176.157 88.2732C178.348 88.2732 180.125 86.4967 180.125 84.3052C180.125 82.1138 178.348 80.3372 176.157 80.3372C173.965 80.3372 172.189 82.1138 172.189 84.3052C172.189 86.4967 173.965 88.2732 176.157 88.2732Z" fill="#DD2E44"/>
<path d="M235.974 108.281H176.035C174.932 108.281 174.037 107.388 174.037 106.283C174.037 105.178 174.932 104.285 176.035 104.285H235.974C237.079 104.285 237.972 105.178 237.972 106.283C237.972 107.388 237.079 108.281 235.974 108.281ZM235.974 101.316H176.035C174.932 101.316 174.037 100.423 174.037 99.318C174.037 98.2132 174.932 97.3201 176.035 97.3201H235.974C237.079 97.3201 237.972 98.2132 237.972 99.318C237.972 100.423 237.079 101.316 235.974 101.316Z" fill="#FFAC33"/>
<path d="M172.932 59.2286C174.484 59.2286 175.743 57.97 175.743 56.4175C175.743 54.8649 174.484 53.6063 172.932 53.6063C171.379 53.6063 170.121 54.8649 170.121 56.4175C170.121 57.97 171.379 59.2286 172.932 59.2286Z" fill="#FFCC4D"/>
<path d="M183.527 57.904C184.842 57.904 185.909 56.8377 185.909 55.5224C185.909 54.2071 184.842 53.1408 183.527 53.1408C182.212 53.1408 181.146 54.2071 181.146 55.5224C181.146 56.8377 182.212 57.904 183.527 57.904Z" fill="#F4900C"/>
<path d="M194.242 50.953C196.211 50.953 197.807 49.3572 197.807 47.3886C197.807 45.4201 196.211 43.8242 194.242 43.8242C192.274 43.8242 190.678 45.4201 190.678 47.3886C190.678 49.3572 192.274 50.953 194.242 50.953Z" fill="#FFCC4D"/>
<path d="M239.077 59.2286C240.629 59.2286 241.888 57.97 241.888 56.4175C241.888 54.8649 240.629 53.6063 239.077 53.6063C237.524 53.6063 236.266 54.8649 236.266 56.4175C236.266 57.97 237.524 59.2286 239.077 59.2286Z" fill="#FFCC4D"/>
<path d="M228.482 57.904C229.797 57.904 230.863 56.8377 230.863 55.5224C230.863 54.2071 229.797 53.1408 228.482 53.1408C227.166 53.1408 226.1 54.2071 226.1 55.5224C226.1 56.8377 227.166 57.904 228.482 57.904Z" fill="#F4900C"/>
<path d="M217.766 50.953C219.735 50.953 221.331 49.3572 221.331 47.3886C221.331 45.4201 219.735 43.8242 217.766 43.8242C215.798 43.8242 214.202 45.4201 214.202 47.3886C214.202 49.3572 215.798 50.953 217.766 50.953Z" fill="#FFCC4D"/>
<path d="M205.88 54.971C207.849 54.971 209.445 53.3751 209.445 51.4066C209.445 49.438 207.849 47.8422 205.88 47.8422C203.912 47.8422 202.316 49.438 202.316 51.4066C202.316 53.3751 203.912 54.971 205.88 54.971Z" fill="#F4900C"/>
<defs>
<radialGradient id="paint0_radial" cx="0" cy="0" r="1" gradientUnits="userSpaceOnUse" gradientTransform="translate(204.052 193.179) rotate(90) scale(165.216)">
<stop offset="0.411458" stop-color="#FF006B"/>
<stop offset="1" stop-color="#B822BB"/>
</radialGradient>
</defs>
</svg>
