<svg height="512pt" viewBox="0 -32 512 512" width="512pt" xmlns="http://www.w3.org/2000/svg" fill="#F21DE4">
<path d="m195.804688 216.546875c-10.390626 0-20.074219 5.59375-25.269532 14.59375-2.761718 4.78125-1.125 10.894531 3.660156 13.660156 4.785157 2.761719 10.898438 1.121094 13.660157-3.660156 1.632812-2.832031 4.679687-4.59375 7.949219-4.59375 3.269531 0 6.316406 1.761719 7.953124 4.59375 1.851563 3.207031 5.214844 5 8.667969 5 1.695313 0 3.417969-.433594 4.992188-1.339844 4.78125-2.765625 6.421875-8.878906 3.660156-13.660156-5.199219-9.003906-14.882813-14.59375-25.273437-14.59375zm0 0"/>
<path d="m316.195312 216.546875c-10.394531 0-20.078124 5.59375-25.269531 14.59375-2.765625 4.78125-1.125 10.898437 3.660157 13.660156 1.574218.90625 3.292968 1.339844 4.988281 1.339844 3.457031 0 6.816406-1.792969 8.667969-5.003906 1.636718-2.828125 4.683593-4.589844 7.953124-4.589844 3.269532 0 6.316407 1.761719 7.949219 4.59375 2.761719 4.78125 8.878907 6.417969 13.660157 3.660156 4.785156-2.765625 6.421874-8.878906 3.660156-13.660156-5.195313-9.003906-14.878906-14.59375-25.269532-14.59375zm0 0"/>
<path d="m512 117.671875c0-64.886719-52.785156-117.671875-117.671875-117.671875-55.570313 0-103.21875 38.996094-114.921875 92.308594-7.664062-1.199219-15.480469-1.8125-23.40625-1.8125s-15.742188.613281-23.402344 1.8125c-11.707031-53.3125-59.355468-92.308594-114.925781-92.308594-64.886719 0-117.671875 52.785156-117.671875 117.671875 0 45.527344 26.523438 86.867187 67.042969 106.21875-9.433594 19.476563-14.378907 40.886719-14.378907 62.78125 0 35.765625 13.191407 70.0625 37.144532 96.585937 23.132812 25.617188 54.46875 42.015626 88.5 46.386719 2.632812 1.9375 5.46875 3.730469 8.527344 5.355469 16.722656 8.902344 39.347656 13.230469 69.164062 13.230469s52.441406-4.328125 69.167969-13.230469c3.058593-1.628906 5.898437-3.421875 8.53125-5.363281 19.636719-2.515625 38.222656-8.933594 55.28125-19.121094 4.742187-2.832031 6.289062-8.96875 3.457031-13.710937-2.828125-4.742188-8.96875-6.292969-13.710938-3.460938-8.226562 4.914062-16.871093 8.800781-25.847656 11.660156 2.835938-7.199218 4.292969-15.203125 4.292969-23.933594 0-3.96875-.285156-7.988281-.828125-12.023437 5.8125.5 11.617188 2.0625 17.371094 4.695313 1.347656.617187 2.761718.910156 4.152344.910156 3.792968 0 7.417968-2.167969 9.101562-5.839844 2.296875-5.023438.089844-10.957031-4.933594-13.257812-10.046875-4.597657-20.25-6.839844-30.496094-6.714844-1.726562-5.117188-3.820312-10.1875-6.242187-15.132813 15.570313-5.710937 32.292969-6.996093 49.917969-3.808593 5.429687.984374 10.636718-2.625 11.621094-8.0625.980468-5.433594-2.625-10.636719-8.0625-11.617188-22.535157-4.078125-43.910157-2.050781-63.753907 6-3.117187-4.5-6.496093-8.808594-10.105469-12.867188 13.320313-8.640624 28.660157-13.347656 45.785157-14.015624 5.519531-.21875 9.816406-4.863282 9.601562-10.382813-.214843-5.519531-4.871093-9.808594-10.382812-9.601563-22.539063.878907-42.589844 7.554688-59.792969 19.863282-5.308594-4.269532-10.898438-7.980469-16.695312-11.007813-1.261719-9.1875-7.945313-23.558593-37.429688-23.558593s-36.171875 14.371093-37.429688 23.558593c-5.796874 3.027344-11.386718 6.738281-16.695312 11.007813-17.203125-12.308594-37.253906-18.984375-59.792969-19.863282-5.554687-.214843-10.167969 4.082032-10.382812 9.601563-.21875 5.519531 4.082031 10.164063 9.601562 10.382813 17.125.667968 32.464844 5.375 45.785157 14.019531-3.609376 4.054687-6.988282 8.363281-10.105469 12.863281-19.84375-8.050781-41.21875-10.078125-63.753907-6-5.4375.980469-9.046874 6.183594-8.0625 11.617188.984376 5.433593 6.1875 9.046874 11.617188 8.0625 17.625-3.1875 34.351562-1.902344 49.921875 3.808593-2.421875 4.949219-4.515625 10.015625-6.242187 15.132813-10.246094-.125-20.449219 2.117187-30.5 6.71875-5.019532 2.296875-7.226563 8.230468-4.929688 13.253906 1.683594 3.671875 5.308594 5.839844 9.097656 5.839844 1.394532 0 2.808594-.292969 4.15625-.910156 5.753906-2.632813 11.558594-4.195313 17.371094-4.695313-.542969 4.039063-.828125 8.054687-.828125 12.023437 0 8.742188 1.457031 16.753907 4.304687 23.960938-50.667968-16.007812-86.46875-63.242188-86.46875-118.359375 0-22.136719 5.742188-43.199219 16.171876-61.523437.550781-.699219 1.015624-1.484376 1.375-2.339844 3.527343-5.890625 7.546874-11.484375 12.023437-16.71875.640625-.570313 1.214844-1.230469 1.703125-1.972656 10.480469-11.746094 23.316406-21.601563 38.082031-28.878907 1.671875-.824219 3.078125-2.097656 4.066407-3.679687 13.128906-21.058594 31.5-37.425782 52.859374-47.898438.609376-.226562 1.179688-.507812 1.714844-.832031 8.214844-3.878906 16.859375-6.882813 25.808594-8.957031.242188-.050782.476562-.109375.714844-.175782 9.324218-2.105468 18.976562-3.195312 28.816406-3.195312s19.492188 1.089844 28.820312 3.199219c.234376.0625.472657.121093.710938.171875 8.949219 2.074218 17.59375 5.078125 25.808594 8.953125.535156.332031 1.109375.609375 1.71875.839843 21.359375 10.46875 39.726562 26.839844 52.855468 47.894532.988282 1.582031 2.394532 2.855468 4.066407 3.679687 14.769531 7.277344 27.605469 17.136719 38.082031 28.882813.492188.742187 1.0625 1.398437 1.703125 1.964844 4.476563 5.238281 8.496094 10.832031 12.023437 16.726562.359376.855469.824219 1.640625 1.375 2.335938 10.429688 18.328124 16.171876 39.390624 16.171876 61.527343 0 17.972657-3.757813 35.3125-11.175782 51.535157-2.292968 5.023437-.082031 10.957031 4.941406 13.253906 5.023438 2.296875 10.953126.082031 13.25-4.941406 8.617188-18.851563 12.984376-38.988282 12.984376-59.847657 0-21.894531-4.941407-43.308593-14.375-62.78125 40.515624-19.355469 67.039062-60.695312 67.039062-106.222656zm-337.171875 263.398437c0-3.164062.269531-6.464843.761719-9.84375 4.578125.296876 8.914062-2.59375 10.246094-7.183593 1.386718-4.765625-.941407-9.722657-5.277344-11.796875 1.253906-3.375 2.699218-6.753906 4.332031-10.097656.777344.191406 1.570313.296874 2.355469.296874 3.421875 0 6.757812-1.761718 8.621094-4.917968 2.289062-3.878906 1.660156-8.664063-1.222657-11.824219 2.605469-3.664063 5.445313-7.179687 8.484375-10.503906 1.011719.332031 2.0625.511719 3.117188.511719 2.675781 0 5.34375-1.066407 7.3125-3.175782 2.367187-2.535156 3.160156-5.972656 2.425781-9.113281 2.429687-1.84375 4.9375-3.558594 7.53125-5.113281 5.253906 8.074218 13.804687 14.507812 22.484375 17.476562v27.835938c-2.132812 2.550781-5.214844 4.089844-8.480469 4.089844-3.980469 0-7.71875-2.261719-9.75-5.898438-2.695312-4.820312-8.789062-6.542969-13.609375-3.847656-4.820312 2.695312-6.542968 8.789062-3.847656 13.605468 5.566406 9.953126 15.988281 16.140626 27.207031 16.140626 6.738281 0 13.195313-2.234376 18.480469-6.175782 5.285156 3.941406 11.738281 6.175782 18.476562 6.175782 11.21875 0 21.644532-6.183594 27.207032-16.136719 2.699218-4.820313.976562-10.914063-3.84375-13.609375-4.824219-2.695313-10.914063-.972656-13.609375 3.847656-2.035157 3.636719-5.769531 5.898438-9.753907 5.898438-3.261718 0-6.347656-1.539063-8.476562-4.089844v-27.835938c8.679688-2.96875 17.230469-9.402344 22.480469-17.476562 2.59375 1.554687 5.105469 3.269531 7.535156 5.109375-.738281 3.140625.054687 6.582031 2.425781 9.113281 1.96875 2.109375 4.636719 3.175781 7.308594 3.175781 1.054688 0 2.105469-.175781 3.121094-.507812 3.039062 3.320312 5.875 6.839843 8.484375 10.5-2.886719 3.160156-3.511719 7.949219-1.222657 11.824219 1.863282 3.160156 5.195313 4.917968 8.621094 4.917968.785156 0 1.574219-.105468 2.355469-.292968 1.632813 3.34375 3.078125 6.71875 4.332031 10.09375-4.335937 2.074218-6.667968 7.03125-5.28125 11.800781 1.335938 4.585937 5.667969 7.480469 10.25 7.179687.492188 3.382813.761719 6.683594.761719 9.847656 0 11.664063 0 47.160157-81.171875 47.160157s-81.171875-35.496094-81.171875-47.160157zm81.171875-106.421874c17.691406 0 17.691406 5.347656 17.691406 7.363281 0 7.164062-11.695312 15.570312-17.691406 15.570312s-17.691406-8.40625-17.691406-15.570312c0-2.015625 0-7.363281 17.691406-7.363281zm-125.359375-116.070313c-13.6875 7.082031-26.082031 16.296875-36.792969 27.230469-15.898437-11.234375-25.511718-29.5-25.511718-49.277344 0-3.640625.324218-7.292969.972656-10.855469.984375-5.433593-2.621094-10.636719-8.054688-11.621093-5.433594-.996094-10.640625 2.617187-11.625 8.050781-.859375 4.738281-1.292968 9.589843-1.292968 14.425781 0 25.71875 12.210937 49.515625 32.496093 64.542969-1.3125 1.773437-2.578125 3.585937-3.8125 5.425781-34.40625-15.773438-57.019531-50.519531-57.019531-88.828125 0-53.855469 43.8125-97.671875 97.671875-97.671875 46.171875 0 85.742187 32.421875 95.410156 76.722656-4.1875 1.246094-8.308593 2.667969-12.351562 4.269532-13.371094-27.179688-41.101563-44.800782-72.058594-44.800782-4.828125 0-9.679687.4375-14.414063 1.292969-5.4375.988281-9.042968 6.191406-8.058593 11.625.988281 5.4375 6.1875 9.046875 11.625 8.054687 3.5625-.644531 7.210937-.972656 10.847656-.972656 23.164063 0 43.925781 13.136719 54.011719 33.417969-20.6875 11.644531-38.597656 28.265625-52.042969 48.96875zm250.71875 0c-13.445313-20.707031-31.355469-37.324219-52.042969-48.96875 10.085938-20.28125 30.847656-33.417969 54.011719-33.417969 33.269531 0 60.335937 27.070313 60.335937 60.339844 0 19.777344-9.613281 38.042969-25.511718 49.277344-10.707032-10.933594-23.105469-20.148438-36.792969-27.230469zm53.621094 47.917969c-1.234375-1.839844-2.5-3.648438-3.8125-5.421875 20.285156-15.027344 32.496093-38.824219 32.496093-64.542969 0-44.300781-36.039062-80.339844-80.335937-80.339844-30.957031 0-58.6875 17.621094-72.058594 44.796875-4.042969-1.601562-8.164062-3.019531-12.351562-4.265625 9.667969-44.300781 49.242187-76.722656 95.410156-76.722656 53.855469 0 97.671875 43.8125 97.671875 97.667969 0 38.3125-22.613281 73.058593-57.019531 88.828125zm0 0"/>
<path d="m85.339844 79.109375c-4.242188-3.535156-10.550782-2.960937-14.085938 1.285156-3.535156 4.242188-2.960937 10.546875 1.28125 14.082031 1.867188 1.558594 4.140625 2.316407 6.394532 2.316407 2.867187 0 5.710937-1.226563 7.6875-3.597657l.007812-.007812c3.535156-4.238281 2.957031-10.542969-1.285156-14.078125zm0 0"/>
<path d="m408 369.148438c-3.902344 3.90625-3.902344 10.238281 0 14.144531 1.953125 1.953125 4.511719 2.929687 7.070312 2.929687 2.5625 0 5.121094-.976562 7.074219-2.929687l.003907-.003907c3.90625-3.90625 3.902343-10.234374-.003907-14.140624s-10.238281-3.902344-14.144531 0zm0 0"/>
</svg>