<svg width="558" height="340" viewBox="0 0 558 340" fill="none" xmlns="http://www.w3.org/2000/svg">
<g clip-path="url(#clip0)">
<circle cx="289" cy="168" r="160" fill="#F21DE4"/>
<path d="M201.203 72.8828C203.994 77.6482 202.403 83.7795 197.65 86.5776C192.896 89.3754 186.779 87.7809 183.988 83.0155C181.197 78.2506 182.788 72.1185 187.542 69.3207C192.295 66.5226 198.412 68.1179 201.203 72.8828Z" fill="#FFCC4D"/>
<path d="M195.568 83.0247C197.526 81.8725 198.114 79.2342 196.883 77.1319C195.651 75.0295 193.066 74.2592 191.109 75.4114C189.151 76.5635 188.563 79.2018 189.794 81.3042C191.026 83.4065 193.611 84.1768 195.568 83.0247Z" fill="#664500"/>
<path d="M197.941 81.8814C197.941 81.8814 198.231 81.2184 197.544 81.0131C196.858 80.8078 196.739 81.5226 196.739 81.5226L195.788 84.7209C195.692 84.6375 195.335 84.4806 195.228 84.4042L196.547 79.9656C196.547 79.9656 196.838 79.3022 196.15 79.097C195.463 78.8922 195.344 79.6063 195.344 79.6063L194.103 83.7806C193.993 83.7376 193.709 83.6439 193.595 83.6033L195.033 78.7637C195.033 78.7637 195.324 78.1002 194.637 77.8957C193.95 77.6904 193.831 78.4047 193.831 78.4047L192.391 83.2438C192.272 83.2149 191.9 83.1171 191.782 83.0928L193.127 78.5694C193.127 78.5694 193.416 77.9061 192.73 77.7013C192.043 77.4963 191.924 78.2103 191.924 78.2103L190.502 82.9931L190.389 83.3767L190.339 83.5473C190.339 83.5473 190.288 84.0853 189.842 83.9621L189.538 81.3027C189.538 81.3027 189.513 80.5848 188.796 80.6097C188.079 80.6351 188.105 81.3531 188.105 81.3531L188.081 83.25C188.07 84.0024 188.045 84.7575 187.929 85.5009C187.603 87.5992 188.865 89.669 190.953 90.2934C193.229 90.973 195.625 89.6738 196.304 87.3921L196.406 87.0467L197.941 81.8814Z" fill="#F4900C"/>
<path d="M185.813 74.488C184.85 75.4666 184.635 76.5225 184.622 76.588C184.561 76.9071 184.77 77.2157 185.088 77.2775C185.407 77.3391 185.714 77.1308 185.775 76.8108C185.79 76.7431 186.164 75.0445 188.274 74.3221C188.581 74.2169 188.744 73.8819 188.639 73.575C188.535 73.2674 188.201 73.1029 187.894 73.2083C186.966 73.525 186.296 73.9969 185.813 74.488ZM192.885 70.3258C192.222 70.5094 191.484 70.8666 190.755 71.5237C190.514 71.7412 190.494 72.1132 190.711 72.3547C190.929 72.5959 191.3 72.616 191.541 72.3985C193.2 70.9019 194.86 71.4036 194.929 71.4256C195.236 71.5228 195.568 71.3529 195.666 71.045C195.765 70.737 195.6 70.4076 195.294 70.3061C195.231 70.2858 194.206 69.9606 192.885 70.3258Z" fill="#664500"/>
<path d="M9.22667 142.081C7.47363 145.125 6.55335 148.401 6.2721 151.701C-0.706136 182.571 38.3096 202.606 91.5047 235.102C100.399 240.533 89.0974 248.218 72.4452 269.809C61.6136 283.851 57.9452 312.917 74.4202 322.454C101.585 338.179 87.8183 301.578 142.415 262.378C171.587 241.433 191.122 273.932 207.533 245.432L244.887 180.562C251.276 169.468 256.33 158.174 241.771 147.407C227.662 136.963 237.263 128.149 215.491 115.546L106.519 52.465C95.4191 46.0395 81.1766 49.8674 74.7709 60.9918C72.1152 65.6037 71.3089 70.7375 71.9532 75.6457C63.8031 75.5357 55.8186 79.6131 51.4622 87.1786C48.8134 91.7784 48.0011 96.9087 48.6428 101.807C40.4781 101.681 32.4781 105.757 28.1147 113.335C24.9466 118.837 24.2973 125.11 25.777 130.833C19.0758 131.885 12.8722 135.75 9.22667 142.081V142.081Z" fill="white"/>
<path d="M92.9265 163.636L40.9648 133.557C33.8989 129.466 25.086 129.417 17.965 133.421C15.033 135.073 13.9889 138.802 15.6403 141.751C17.2858 144.697 21.0133 145.733 23.9513 144.084C27.3298 142.175 31.52 142.212 34.8718 144.152L88.0775 174.951C93.3498 178.003 95.1632 184.782 92.1206 190.066C89.0781 195.35 82.3157 197.165 77.0435 194.113L41.4904 173.532C38.5735 171.844 34.8399 172.846 33.1566 175.769C31.4732 178.693 32.4744 182.436 35.3914 184.124L70.9505 204.708C82.0506 211.134 96.2896 207.312 102.695 196.188C106.268 189.984 106.56 182.834 104.284 176.578C110.107 175.066 115.348 171.321 118.582 165.704C122.165 159.482 122.449 152.304 120.146 146.039C125.941 144.52 131.147 140.779 134.374 135.174C138.278 128.396 138.345 120.462 135.32 113.828C140.538 112.095 145.192 108.6 148.147 103.467C154.553 92.3432 150.734 78.0684 139.634 71.6428L106.515 52.4711C99.4491 48.3808 90.6338 48.3215 83.5127 52.3257C80.5747 53.974 79.5305 57.7031 81.176 60.6488C82.8344 63.586 86.548 64.6462 89.48 62.9945C92.8706 61.0917 97.0642 61.1225 100.416 63.0628L133.535 82.2345C138.807 85.2865 140.621 92.0658 137.578 97.3496C134.536 102.633 127.773 104.448 122.501 101.396L83.2098 78.6518C76.1439 74.5616 67.319 74.5049 60.204 78.5126C57.2625 80.1669 56.2183 83.8959 57.8672 86.8357C59.5229 89.8196 63.2453 90.8366 66.1713 89.1813C69.6139 87.2441 73.7046 87.2718 77.1107 89.2436L119.766 113.935C125.038 116.987 126.848 123.773 123.806 129.057C120.763 134.34 114.001 136.155 108.728 133.103L59.8648 104.818C52.7989 100.727 43.9836 100.668 36.8625 104.672C33.9245 106.321 32.8803 110.05 34.5258 112.995C36.1868 115.942 39.8978 116.993 42.8298 115.341C46.2689 113.41 50.3597 113.438 53.7658 115.409L103.964 144.468C109.236 147.52 111.05 154.299 108.007 159.583C104.965 164.867 98.2048 166.691 92.9265 163.636V163.636Z" fill="#FFCC4D"/>
<path d="M548.65 187.815C550.404 184.771 551.325 181.495 551.608 178.196C558.598 147.328 519.597 127.313 466.425 94.8451C457.534 89.4185 468.837 81.7302 485.496 60.136C496.331 46.0921 500.012 17.0292 483.543 7.50086C456.39 -8.20964 470.139 28.379 415.534 67.5957C386.358 88.5492 366.841 56.0638 350.42 84.5665L313.041 149.447C306.649 160.542 301.591 171.835 316.143 182.595C330.249 193.024 320.645 201.841 342.408 214.433L451.336 277.457C462.431 283.876 476.673 280.043 483.082 268.918C485.74 264.306 486.548 259.172 485.906 254.265C494.054 254.372 502.039 250.292 506.398 242.726C509.048 238.126 509.863 232.996 509.223 228.098C517.387 228.221 525.387 224.142 529.753 216.564C532.923 211.062 533.575 204.789 532.098 199.068C538.798 198.014 545.002 194.147 548.65 187.815V187.815Z" fill="white"/>
<path d="M464.972 166.3L516.913 196.351C523.976 200.438 532.787 200.484 539.908 196.477C542.841 194.825 543.886 191.096 542.236 188.148C540.592 185.203 536.866 184.169 533.928 185.818C530.549 187.729 526.359 187.694 523.009 185.755L469.825 154.984C464.555 151.935 462.745 145.158 465.789 139.873C468.833 134.589 475.595 132.772 480.865 135.821L516.404 156.383C519.32 158.07 523.053 157.066 524.737 154.143C526.422 151.219 525.422 147.477 522.506 145.79L486.962 125.225C475.866 118.805 461.628 122.632 455.219 133.758C451.644 139.962 451.349 147.111 453.622 153.365C447.799 154.879 442.558 158.625 439.322 164.242C435.737 170.465 435.449 177.642 437.75 183.904C431.955 185.426 426.748 189.168 423.519 194.773C419.614 201.552 419.543 209.485 422.564 216.116C417.347 217.851 412.692 221.348 409.735 226.481C403.326 237.606 407.138 251.876 418.233 258.296L451.339 277.45C458.402 281.537 467.216 281.592 474.337 277.586C477.276 275.937 478.321 272.208 476.677 269.263C475.02 266.327 471.308 265.269 468.376 266.922C464.985 268.825 460.792 268.796 457.441 266.858L424.336 247.704C419.066 244.654 417.255 237.877 420.3 232.593C423.344 227.309 430.106 225.491 435.376 228.54L474.651 251.264C481.714 255.351 490.538 255.404 497.653 251.394C500.595 249.739 501.641 246.01 499.993 243.071C498.339 240.088 494.618 239.073 491.691 240.729C488.249 242.668 484.159 242.642 480.754 240.672L438.116 216.002C432.846 212.953 431.039 206.17 434.084 200.886C437.128 195.602 443.89 193.784 449.16 196.833L498.003 225.093C505.066 229.18 513.88 229.235 521.002 225.229C523.94 223.58 524.986 219.851 523.342 216.906C521.682 213.961 517.972 212.912 515.04 214.564C511.601 216.497 507.511 216.471 504.106 214.501L453.928 185.469C448.658 182.42 446.848 175.642 449.892 170.358C452.937 165.074 459.696 163.247 464.972 166.3V166.3Z" fill="#FFCC4D"/>
<path d="M223.013 159.341C255.613 159.341 282.04 132.849 282.04 100.17C282.04 67.4915 255.613 41 223.013 41C190.414 41 163.987 67.4915 163.987 100.17C163.987 132.849 190.414 159.341 223.013 159.341Z" fill="black"/>
<path d="M354.956 159.341C387.555 159.341 413.982 132.849 413.982 100.17C413.982 67.4915 387.555 41 354.956 41C322.356 41 295.929 67.4915 295.929 100.17C295.929 132.849 322.356 159.341 354.956 159.341Z" fill="black"/>
<path d="M260.595 74.7898C251.818 63.5056 238.172 56.2242 222.798 56.2242C196.319 56.2242 174.84 77.7553 174.84 104.298C174.84 123.602 186.215 140.198 202.59 147.848C207.513 118.646 230.249 87.4801 260.595 74.7898ZM355.17 56.2311C339.795 56.2311 326.143 63.5126 317.372 74.7968C347.712 87.4871 370.447 118.653 375.385 147.862C391.752 140.211 403.134 123.616 403.134 104.312C403.134 77.7553 381.655 56.2311 355.17 56.2311Z" fill="black"/>
<path d="M400.093 191.314C386.204 121.388 321.393 146.066 288.984 146.066C256.575 146.066 191.764 121.381 177.876 191.314C168.883 236.59 204.222 260.084 240.596 270.581C252.055 279.158 269.471 284.643 288.984 284.643C308.498 284.643 325.914 279.158 337.379 270.574C373.746 260.077 409.086 236.59 400.093 191.314Z" fill="black"/>
<path d="M376.482 159.341C376.482 235.915 337.309 201.108 288.984 201.108C240.659 201.108 201.486 235.915 201.486 159.341C201.486 118.973 240.659 68.8449 288.984 68.8449C337.309 68.8449 376.482 118.973 376.482 159.341Z" fill="black"/>
<path d="M309.157 228.647C309.157 239.813 295.185 251.981 288.984 251.981C282.776 251.981 268.811 239.813 268.811 228.647C268.811 217.474 281.22 215.031 288.984 215.031C296.741 215.031 309.157 217.474 309.157 228.647Z" fill="black"/>
<path d="M410.613 244.985C374.19 223.085 324.817 229.844 322.726 230.137C322.629 230.151 322.567 230.213 322.469 230.227C321.907 230.332 321.407 230.561 320.886 230.791C320.567 230.937 320.24 231.035 319.956 231.223C319.532 231.494 319.212 231.863 318.858 232.225C318.574 232.51 318.275 232.754 318.046 233.081C317.796 233.443 317.657 233.854 317.476 234.265C317.289 234.696 317.074 235.107 316.983 235.58C316.956 235.692 316.879 235.775 316.858 235.894C316.796 236.277 316.9 236.625 316.9 237C316.893 237.342 316.789 237.662 316.838 238.017C316.851 238.128 316.921 238.205 316.942 238.309C317.032 238.79 317.226 239.214 317.407 239.653C317.574 240.07 317.713 240.488 317.956 240.857C318.15 241.163 318.421 241.386 318.657 241.658C319.025 242.061 319.379 242.451 319.824 242.757C320.087 242.938 320.4 243.043 320.692 243.189C321.205 243.44 321.705 243.676 322.282 243.795C322.386 243.816 322.462 243.885 322.567 243.906C322.955 243.976 361.705 250.707 380.649 276.018C382.01 277.849 384.093 278.803 386.211 278.803C387.662 278.803 389.121 278.35 390.371 277.41C393.44 275.106 394.065 270.742 391.76 267.672C384.065 257.376 373.892 249.809 363.809 244.219C376.864 245.904 391.183 249.545 403.468 256.93C404.586 257.606 405.822 257.926 407.037 257.926C409.398 257.926 411.697 256.722 412.995 254.55C414.967 251.236 413.898 246.962 410.613 244.985ZM260.019 240.836C260.255 240.474 260.387 240.063 260.554 239.66C260.735 239.214 260.936 238.796 261.026 238.316C261.047 238.205 261.116 238.121 261.137 238.01C261.186 237.641 261.082 237.293 261.075 236.938C261.075 236.583 261.172 236.242 261.11 235.887C261.096 235.775 261.019 235.699 260.998 235.587C260.894 235.107 260.686 234.675 260.485 234.237C260.311 233.84 260.172 233.436 259.929 233.088C259.707 232.761 259.408 232.517 259.13 232.232C258.776 231.863 258.443 231.501 258.019 231.216C257.742 231.042 257.415 230.944 257.11 230.798C256.589 230.561 256.082 230.339 255.512 230.234C255.415 230.213 255.346 230.151 255.249 230.137C253.158 229.844 203.777 223.078 167.362 244.985C164.07 246.962 163.007 251.236 164.98 254.536C166.285 256.708 168.584 257.912 170.938 257.912C172.153 257.912 173.389 257.592 174.507 256.917C186.785 249.531 201.104 245.897 214.152 244.212C204.076 249.795 193.91 257.369 186.215 267.658C183.91 270.728 184.535 275.092 187.604 277.396C188.854 278.336 190.319 278.789 191.764 278.789C193.875 278.789 195.958 277.828 197.326 276.004C216.194 250.791 255.033 243.955 255.422 243.892C255.526 243.871 255.596 243.809 255.7 243.781C256.235 243.669 256.7 243.44 257.186 243.21C257.519 243.057 257.873 242.938 258.172 242.73C258.582 242.451 258.894 242.082 259.228 241.727C259.498 241.435 259.797 241.177 260.019 240.836Z" fill="black"/>
<path d="M233.43 173.263C233.43 173.263 233.43 159.341 247.319 159.341C261.207 159.341 261.207 173.263 261.207 173.263V187.186C261.207 187.186 261.207 201.108 247.319 201.108C233.43 201.108 233.43 187.186 233.43 187.186V173.263ZM316.762 173.263C316.762 173.263 316.762 159.341 330.65 159.341C344.539 159.341 344.539 173.263 344.539 173.263V187.186C344.539 187.186 344.539 201.108 330.65 201.108C316.762 201.108 316.762 187.186 316.762 187.186V173.263Z" fill="black"/>
<path d="M226.7 159.535C257.478 159.535 282.428 134.524 282.428 103.671C282.428 72.8185 257.478 47.8073 226.7 47.8073C195.922 47.8073 170.972 72.8185 170.972 103.671C170.972 134.524 195.922 159.535 226.7 159.535Z" fill="#EAB32C"/>
<path d="M351.269 159.535C382.047 159.535 406.997 134.524 406.997 103.671C406.997 72.8185 382.047 47.8073 351.269 47.8073C320.491 47.8073 295.541 72.8185 295.541 103.671C295.541 134.524 320.491 159.535 351.269 159.535Z" fill="#EAB32C"/>
<path d="M262.182 79.709C253.895 69.0554 241.012 62.1808 226.496 62.1808C201.497 62.1808 181.219 82.5088 181.219 107.569C181.219 125.794 191.958 141.462 207.418 148.685C212.066 121.114 233.531 91.6902 262.182 79.709ZM351.471 62.1874C336.956 62.1874 324.066 69.062 315.786 79.7156C344.43 91.6968 365.895 121.121 370.557 148.698C386.01 141.475 396.755 125.807 396.755 107.582C396.755 82.5088 376.477 62.1874 351.471 62.1874Z" fill="#EA596E"/>
<path d="M393.885 189.722C380.772 123.704 319.583 147.002 288.984 147.002C258.386 147.002 197.197 123.697 184.084 189.722C175.594 232.468 208.959 254.649 243.301 264.56C254.118 272.657 270.561 277.836 288.984 277.836C307.408 277.836 323.851 272.657 334.675 264.553C369.01 254.642 402.375 232.468 393.885 189.722Z" fill="white"/>
<path d="M371.593 159.535C371.593 231.83 334.609 198.969 288.984 198.969C243.359 198.969 206.375 231.83 206.375 159.535C206.375 121.423 243.359 74.0963 288.984 74.0963C334.609 74.0963 371.593 121.423 371.593 159.535Z" fill="#FFC944"/>
<path d="M308.03 224.969C308.03 235.511 294.839 246.999 288.984 246.999C283.123 246.999 269.938 235.511 269.938 224.969C269.938 214.42 281.654 212.113 288.984 212.113C296.308 212.113 308.03 214.42 308.03 224.969Z" fill="#EA596E"/>
<path d="M403.817 240.394C369.429 219.717 322.814 226.099 320.841 226.375C320.749 226.388 320.69 226.447 320.598 226.461C320.067 226.559 319.595 226.776 319.104 226.993C318.802 227.131 318.494 227.223 318.225 227.4C317.825 227.657 317.523 228.005 317.189 228.347C316.92 228.616 316.638 228.846 316.422 229.155C316.186 229.497 316.055 229.885 315.884 230.272C315.707 230.68 315.504 231.068 315.419 231.515C315.393 231.62 315.321 231.699 315.301 231.81C315.242 232.172 315.34 232.5 315.34 232.855C315.334 233.177 315.235 233.48 315.281 233.815C315.294 233.92 315.36 233.992 315.38 234.091C315.465 234.544 315.648 234.945 315.819 235.359C315.976 235.754 316.107 236.148 316.337 236.496C316.52 236.786 316.776 236.996 316.999 237.252C317.346 237.633 317.681 238.001 318.1 238.291C318.35 238.461 318.645 238.56 318.92 238.698C319.405 238.935 319.877 239.158 320.421 239.27C320.52 239.29 320.592 239.355 320.69 239.375C321.057 239.441 357.641 245.796 375.527 269.693C376.812 271.421 378.779 272.322 380.778 272.322C382.148 272.322 383.525 271.894 384.705 271.007C387.603 268.832 388.193 264.711 386.017 261.813C378.752 252.092 369.147 244.948 359.628 239.671C371.953 241.261 385.472 244.699 397.07 251.672C398.126 252.309 399.293 252.612 400.44 252.612C402.669 252.612 404.84 251.475 406.066 249.424C407.928 246.296 406.918 242.26 403.817 240.394ZM261.638 236.477C261.861 236.135 261.985 235.747 262.143 235.366C262.313 234.945 262.503 234.551 262.589 234.098C262.608 233.992 262.674 233.914 262.694 233.808C262.739 233.46 262.641 233.131 262.635 232.796C262.635 232.461 262.726 232.139 262.667 231.804C262.654 231.699 262.582 231.626 262.562 231.521C262.464 231.068 262.267 230.66 262.077 230.246C261.913 229.872 261.782 229.49 261.553 229.162C261.343 228.853 261.061 228.623 260.799 228.353C260.464 228.005 260.15 227.663 259.75 227.394C259.488 227.23 259.179 227.138 258.891 227C258.399 226.776 257.921 226.566 257.383 226.467C257.291 226.447 257.226 226.388 257.134 226.375C255.16 226.099 208.539 219.711 174.158 240.394C171.05 242.26 170.047 246.296 171.909 249.411C173.142 251.461 175.312 252.598 177.534 252.598C178.682 252.598 179.849 252.296 180.904 251.659C192.496 244.685 206.015 241.255 218.334 239.664C208.821 244.935 199.222 252.086 191.958 261.8C189.781 264.698 190.372 268.819 193.269 270.994C194.45 271.881 195.833 272.309 197.197 272.309C199.19 272.309 201.157 271.402 202.448 269.68C220.261 245.875 256.931 239.421 257.298 239.362C257.396 239.342 257.462 239.283 257.56 239.257C258.065 239.152 258.504 238.935 258.963 238.718C259.278 238.573 259.612 238.461 259.894 238.264C260.281 238.001 260.576 237.653 260.891 237.318C261.146 237.042 261.428 236.799 261.638 236.477Z" fill="#C1694F"/>
<path d="M236.534 172.68C236.534 172.68 236.534 159.535 249.647 159.535C262.759 159.535 262.759 172.68 262.759 172.68V185.824C262.759 185.824 262.759 198.969 249.647 198.969C236.534 198.969 236.534 185.824 236.534 185.824V172.68ZM315.209 172.68C315.209 172.68 315.209 159.535 328.322 159.535C341.434 159.535 341.434 172.68 341.434 172.68V185.824C341.434 185.824 341.434 198.969 328.322 198.969C315.209 198.969 315.209 185.824 315.209 185.824V172.68Z" fill="#272B2B"/>
<path d="M292.834 67.2602L284.841 50.6124L276.17 63.5999L292.834 67.2602Z" fill="black"/>
<path d="M302.243 51.199L288.372 67.6119L307.995 71.9221L302.243 51.199Z" fill="black"/>
<path d="M304.275 69.7731L318.481 58.0013L320.94 73.4334L304.275 69.7731Z" fill="black"/>
<path d="M315.124 69.1951L311.796 50.1386L299.183 65.6952L299.171 65.6974L299.162 65.6891L294.193 46.2706L283.221 62.1878C279.963 54.6284 276.516 49.4875 276.516 49.4875C276.516 49.4875 274.924 69.0986 270.911 87.4585L315.765 97.3104C319.778 78.9505 326.513 60.4691 326.513 60.4691C326.513 60.4691 321.237 63.6942 315.124 69.1951Z" fill="black"/>
<path d="M295.669 81.4114C298.715 82.0803 301.724 80.1478 302.392 77.0951C303.059 74.0423 301.131 71.0254 298.086 70.3565C295.04 69.6876 292.031 71.6201 291.364 74.6728C290.696 77.7255 292.624 80.7425 295.669 81.4114Z" fill="#5C913B"/>
<path d="M308.804 82.2922C310.796 82.7297 312.764 81.4658 313.201 79.4693C313.637 77.4728 312.376 75.4997 310.385 75.0622C308.393 74.6247 306.425 75.8886 305.988 77.8851C305.552 79.8816 306.813 81.8548 308.804 82.2922Z" fill="black"/>
<path d="M318.497 83.7519C320.137 84.1121 321.757 83.0715 322.117 81.4276C322.476 79.7837 321.438 78.1591 319.798 77.7989C318.158 77.4387 316.537 78.4793 316.178 80.1232C315.819 81.7671 316.857 83.3918 318.497 83.7519Z" fill="#DD2E44"/>
<path d="M283.368 76.7052C285.359 77.1427 287.328 75.8788 287.764 73.8823C288.2 71.8858 286.94 69.9126 284.948 69.4752C282.956 69.0377 280.988 70.3016 280.552 72.2981C280.115 74.2946 281.376 76.2677 283.368 76.7052Z" fill="black"/>
<path d="M273.955 73.9687C275.595 74.3289 277.216 73.2882 277.575 71.6443C277.934 70.0004 276.896 68.3758 275.256 68.0156C273.617 67.6554 271.996 68.696 271.637 70.3399C271.277 71.9838 272.315 73.6085 273.955 73.9687Z" fill="#DD2E44"/>
<path d="M315.437 98.8091L270.584 88.9572C269.758 88.776 269.235 87.9589 269.416 87.1301C269.597 86.3013 270.414 85.7784 271.239 85.9597L316.092 95.8116C316.919 95.9932 317.441 96.8099 317.26 97.6388C317.079 98.4676 316.264 98.9907 315.437 98.8091ZM316.579 93.5844L271.726 83.7325C270.9 83.5513 270.377 82.7342 270.558 81.9054C270.739 81.0766 271.556 80.5537 272.381 80.735L317.234 90.5869C318.061 90.7685 318.583 91.5853 318.402 92.4141C318.221 93.2429 317.406 93.766 316.579 93.5844Z" fill="#FFAC33"/>
<path d="M276.304 51.6511C277.466 51.9063 278.614 51.169 278.869 50.0044C279.123 48.8397 278.388 47.6887 277.226 47.4336C276.064 47.1784 274.916 47.9156 274.662 49.0803C274.407 50.2449 275.143 51.3959 276.304 51.6511Z" fill="black"/>
<path d="M284.45 52.3989C285.435 52.6151 286.407 51.9905 286.623 51.0038C286.839 50.0171 286.216 49.042 285.231 48.8258C284.247 48.6096 283.274 49.2342 283.059 50.2209C282.843 51.2076 283.466 52.1827 284.45 52.3989Z" fill="black"/>
<path d="M293.608 48.9459C295.081 49.2695 296.537 48.3347 296.86 46.858C297.183 45.3813 296.25 43.9219 294.777 43.5983C293.304 43.2748 291.848 44.2096 291.525 45.6863C291.203 47.163 292.135 48.6224 293.608 48.9459Z" fill="black"/>
<path d="M325.802 62.523C326.964 62.7781 328.112 62.0409 328.366 60.8762C328.621 59.7116 327.886 58.5606 326.724 58.3054C325.562 58.0503 324.414 58.7875 324.159 59.9521C323.905 61.1168 324.64 62.2678 325.802 62.523Z" fill="black"/>
<path d="M318.091 59.7878C319.075 60.004 320.048 59.3794 320.263 58.3928C320.479 57.4061 319.856 56.431 318.872 56.2148C317.887 55.9986 316.915 56.6232 316.699 57.6099C316.483 58.5965 317.106 59.5717 318.091 59.7878Z" fill="black"/>
<path d="M311.212 52.8124C312.685 53.136 314.141 52.2012 314.464 50.7245C314.787 49.2478 313.854 47.7884 312.381 47.4648C310.908 47.1413 309.452 48.0761 309.129 49.5528C308.807 51.0295 309.739 52.4889 311.212 52.8124Z" fill="black"/>
<path d="M301.659 53.8729C303.132 54.1964 304.588 53.2616 304.91 51.7849C305.233 50.3082 304.301 48.8488 302.827 48.5253C301.354 48.2017 299.898 49.1365 299.576 50.6132C299.253 52.0899 300.185 53.5493 301.659 53.8729Z" fill="black"/>
<path d="M293.305 67.472L286.003 52.2635L278.082 64.1281L293.305 67.472Z" fill="#F4900C"/>
<path d="M301.901 52.7993L289.229 67.7933L307.156 71.7308L301.901 52.7993Z" fill="#F4900C"/>
<path d="M303.757 69.7676L316.735 59.0136L318.981 73.1114L303.757 69.7676Z" fill="#F4900C"/>
<path d="M313.668 69.2396L310.628 51.8306L299.105 66.0423L299.094 66.0443L299.086 66.0367L294.547 48.297L284.523 62.8381C281.547 55.9323 278.398 51.2358 278.398 51.2358C278.398 51.2358 276.944 69.1514 273.278 85.9239L314.253 94.9241C317.92 78.1516 324.072 61.2679 324.072 61.2679C324.072 61.2679 319.252 64.2142 313.668 69.2396Z" fill="#FDBC1B"/>
<path d="M295.895 80.3997C298.677 81.0108 301.427 79.2453 302.036 76.4566C302.646 73.6678 300.885 70.9116 298.103 70.3006C295.321 69.6895 292.571 71.4549 291.962 74.2437C291.352 77.0325 293.113 79.7886 295.895 80.3997Z" fill="#5C913B"/>
<path d="M307.895 81.2044C309.714 81.604 311.512 80.4494 311.911 78.6255C312.31 76.8016 311.158 74.9991 309.338 74.5994C307.519 74.1998 305.721 75.3544 305.322 77.1783C304.923 79.0022 306.075 80.8047 307.895 81.2044Z" fill="#981CEB"/>
<path d="M316.749 82.5379C318.247 82.8669 319.728 81.9163 320.056 80.4145C320.384 78.9127 319.436 77.4285 317.938 77.0995C316.44 76.7704 314.959 77.7211 314.631 79.2229C314.302 80.7246 315.251 82.2088 316.749 82.5379Z" fill="#DD2E44"/>
<path d="M284.657 76.1004C286.477 76.5 288.275 75.3454 288.674 73.5215C289.072 71.6976 287.921 69.8951 286.101 69.4954C284.282 69.0958 282.483 70.2504 282.085 72.0743C281.686 73.8982 282.838 75.7007 284.657 76.1004Z" fill="#981CEB"/>
<path d="M276.059 73.6004C277.557 73.9295 279.037 72.9788 279.365 71.477C279.694 69.9753 278.745 68.4911 277.247 68.162C275.749 67.833 274.269 68.7837 273.94 70.2854C273.612 71.7872 274.56 73.2714 276.059 73.6004Z" fill="#DD2E44"/>
<path d="M313.954 96.2933L272.978 87.2931C272.224 87.1275 271.746 86.3811 271.912 85.6239C272.077 84.8668 272.823 84.3892 273.577 84.5548L314.553 93.5549C315.308 93.7208 315.785 94.4669 315.619 95.2241C315.454 95.9813 314.709 96.4592 313.954 96.2933ZM314.997 91.5203L274.022 82.5202C273.268 82.3546 272.79 81.6081 272.955 80.851C273.121 80.0938 273.866 79.6162 274.62 79.7818L315.596 88.7819C316.351 88.9478 316.828 89.694 316.662 90.4511C316.497 91.2083 315.753 91.6862 314.997 91.5203Z" fill="#FFAC33"/>
<path d="M278.205 53.2123C279.266 53.4455 280.315 52.772 280.547 51.708C280.78 50.6441 280.108 49.5926 279.047 49.3595C277.985 49.1263 276.936 49.7998 276.704 50.8638C276.471 51.9277 277.143 52.9792 278.205 53.2123Z" fill="#FFCC4D"/>
<path d="M285.646 53.8955C286.545 54.093 287.434 53.5224 287.631 52.621C287.828 51.7197 287.259 50.8288 286.36 50.6313C285.46 50.4338 284.572 51.0044 284.375 51.9058C284.178 52.8072 284.747 53.698 285.646 53.8955Z" fill="#F4900C"/>
<path d="M294.012 50.7411C295.358 51.0367 296.688 50.1827 296.983 48.8337C297.278 47.4846 296.426 46.1514 295.08 45.8558C293.734 45.5602 292.405 46.4142 292.11 47.7632C291.815 49.1123 292.667 50.4455 294.012 50.7411Z" fill="#FFCC4D"/>
<path d="M323.423 63.1443C324.484 63.3774 325.533 62.7039 325.766 61.6399C325.998 60.576 325.326 59.5245 324.265 59.2914C323.204 59.0583 322.155 59.7318 321.922 60.7957C321.69 61.8597 322.362 62.9112 323.423 63.1443Z" fill="#FFCC4D"/>
<path d="M316.378 60.6457C317.277 60.8432 318.166 60.2726 318.363 59.3712C318.56 58.4698 317.991 57.579 317.091 57.3815C316.192 57.184 315.304 57.7546 315.107 58.656C314.91 59.5573 315.479 60.4482 316.378 60.6457Z" fill="#F4900C"/>
<path d="M310.094 54.2733C311.44 54.5689 312.77 53.7149 313.065 52.3659C313.36 51.0168 312.508 49.6836 311.162 49.388C309.817 49.0924 308.487 49.9464 308.192 51.2954C307.897 52.6445 308.749 53.9777 310.094 54.2733Z" fill="#FFCC4D"/>
<path d="M301.367 55.242C302.713 55.5376 304.043 54.6836 304.338 53.3346C304.632 51.9856 303.78 50.6523 302.435 50.3567C301.089 50.0612 299.759 50.9151 299.464 52.2642C299.169 53.6132 300.021 54.9464 301.367 55.242Z" fill="#F4900C"/>
</g>
<defs>
<clipPath id="clip0">
<rect width="558" height="340" fill="white"/>
</clipPath>
</defs>
</svg>
