<svg width="594" height="498" viewBox="0 0 594 498" fill="none" xmlns="http://www.w3.org/2000/svg">
<g clip-path="url(#clip0)">
<path d="M307.999 17.9095L311.648 29.1417H323.458L313.904 36.0836L317.553 47.3158L307.999 40.3739L298.444 47.3158L302.093 36.0836L292.539 29.1417H304.349L307.999 17.9095Z" fill="#D97904"/>
<path d="M307.999 480.091L304.35 468.859H292.54L302.094 461.917L298.445 450.685L307.999 457.626L317.554 450.685L313.905 461.917L323.459 468.859H311.649L307.999 480.091Z" fill="#D97904"/>
<path d="M76.9092 249L88.1414 245.351V233.54L95.0833 243.095L106.316 239.445L99.3736 249L106.316 258.555L95.0833 254.905L88.1414 264.46V252.65L76.9092 249Z" fill="#D97904"/>
<path d="M539.091 249L527.859 252.65V264.46L520.917 254.905L509.684 258.555L516.626 249L509.684 239.445L520.917 243.095L527.859 233.54V245.351L539.091 249Z" fill="#D97904"/>
<path d="M144.594 85.5943L155.117 90.9561L163.468 82.6049L161.621 94.2698L172.144 99.6315L160.479 101.479L158.631 113.144L153.269 102.621L141.605 104.468L149.956 96.1173L144.594 85.5943Z" fill="#D97904"/>
<path d="M471.406 412.406L460.883 407.044L452.532 415.395L454.379 403.731L443.856 398.369L455.521 396.521L457.369 384.856L462.731 395.379L474.395 393.532L466.044 401.883L471.406 412.406Z" fill="#D97904"/>
<path d="M144.593 412.405L149.954 401.882L141.603 393.531L153.268 395.378L158.63 384.855L160.477 396.52L172.142 398.367L161.619 403.729L163.467 415.394L155.116 407.043L144.593 412.405Z" fill="#D97904"/>
<path d="M471.406 85.5944L466.045 96.1174L474.396 104.469L462.731 102.621L457.369 113.144L455.522 101.479L443.857 99.6316L454.38 94.2699L452.532 82.605L460.883 90.9561L471.406 85.5944Z" fill="#D97904"/>
<path d="M219.566 35.5L227.236 44.4806L238.147 39.961L231.976 50.0309L239.647 59.0115L228.163 56.2544L221.992 66.3243L221.065 54.5505L209.581 51.7934L220.493 47.2738L219.566 35.5Z" fill="#D97904"/>
<path d="M396.434 462.5L388.764 453.52L377.853 458.039L384.024 447.969L376.353 438.989L387.837 441.746L394.008 431.676L394.935 443.45L406.419 446.207L395.507 450.726L396.434 462.5Z" fill="#D97904"/>
<path d="M94.5 337.435L103.481 329.765L98.961 318.853L109.031 325.024L118.012 317.354L115.254 328.838L125.324 335.009L113.551 335.936L110.793 347.42L106.274 336.508L94.5 337.435Z" fill="#D97904"/>
<path d="M521.499 160.566L512.518 168.236L517.038 179.147L506.968 172.976L497.988 180.646L500.745 169.162L490.675 162.992L502.449 162.065L505.206 150.581L509.725 161.492L521.499 160.566Z" fill="#D97904"/>
<path d="M94.499 160.566L106.273 161.492L110.792 150.581L113.55 162.065L125.323 162.992L115.253 169.162L118.011 180.646L109.03 172.976L98.96 179.147L103.48 168.236L94.499 160.566Z" fill="#D97904"/>
<path d="M521.5 337.435L509.726 336.508L505.207 347.419L502.45 335.936L490.676 335.009L500.746 328.838L497.989 317.354L506.969 325.024L517.039 318.853L512.519 329.765L521.5 337.435Z" fill="#D97904"/>
<path d="M219.565 462.5L220.492 450.726L209.58 446.207L221.064 443.45L221.991 431.676L228.162 441.746L239.646 438.989L231.976 447.969L238.146 458.039L227.235 453.52L219.565 462.5Z" fill="#D97904"/>
<path d="M396.434 35.5002L395.507 47.2741L406.419 51.7937L394.935 54.5507L394.008 66.3246L387.837 56.2547L376.353 59.0117L384.024 50.0311L377.853 39.9612L388.764 44.4808L396.434 35.5002Z" fill="#D97904"/>
<path d="M9.47374 223.081C7.7207 226.125 6.80042 229.401 6.51917 232.701C-0.459066 263.571 38.5566 283.606 91.7517 316.102C100.646 321.533 89.3445 329.218 72.6923 350.809C61.8607 364.851 58.1922 393.918 74.6673 403.454C101.832 419.179 88.0654 382.578 142.662 343.378C171.834 322.433 191.369 354.932 207.78 326.432L245.134 261.562C251.523 250.468 256.577 239.174 242.018 228.407C227.909 217.963 237.51 209.149 215.739 196.546L106.766 133.465C95.6662 127.04 81.4237 130.867 75.0179 141.992C72.3622 146.604 71.556 151.738 72.2003 156.646C64.0502 156.536 56.0657 160.613 51.7092 168.179C49.0605 172.778 48.2482 177.909 48.8899 182.807C40.7252 182.681 32.7252 186.757 28.3617 194.335C25.1937 199.837 24.5444 206.11 26.0241 211.833C19.3229 212.885 13.1192 216.75 9.47374 223.081V223.081Z" fill="white"/>
<path d="M93.1735 244.636L41.2119 214.557C34.1459 210.466 25.3331 210.417 18.2121 214.421C15.2801 216.073 14.2359 219.802 15.8874 222.751C17.5329 225.697 21.2604 226.733 24.1984 225.084C27.5769 223.175 31.7671 223.212 35.1188 225.152L88.3246 255.951C93.5969 259.003 95.4103 265.782 92.3677 271.066C89.3251 276.35 82.5628 278.165 77.2905 275.113L41.7375 254.532C38.8205 252.844 35.087 253.846 33.4036 256.769C31.7203 259.693 32.7215 263.436 35.6384 265.124L71.1975 285.708C82.2977 292.134 96.5367 288.312 102.942 277.188C106.515 270.984 106.807 263.834 104.531 257.578C110.354 256.066 115.595 252.321 118.829 246.704C122.412 240.482 122.696 233.304 120.393 227.04C126.188 225.52 131.394 221.779 134.621 216.175C138.525 209.396 138.592 201.462 135.567 194.829C140.785 193.096 145.439 189.6 148.394 184.468C154.8 173.343 150.981 159.068 139.881 152.643L106.762 133.471C99.6962 129.381 90.8808 129.322 83.7598 133.326C80.8217 134.974 79.7776 138.703 81.423 141.649C83.0815 144.586 86.7951 145.646 89.7271 143.995C93.1176 142.092 97.3113 142.123 100.663 144.063L133.782 163.235C139.055 166.287 140.868 173.066 137.825 178.35C134.783 183.633 128.02 185.449 122.748 182.397L83.4569 159.652C76.3909 155.562 67.5661 155.505 60.4511 159.513C57.5095 161.167 56.4654 164.896 58.1143 167.836C59.77 170.82 63.4924 171.837 66.4183 170.181C69.861 168.244 73.9517 168.272 77.3578 170.244L120.013 194.936C125.285 197.987 127.095 204.773 124.053 210.057C121.01 215.34 114.248 217.155 108.975 214.103L60.1119 185.818C53.046 181.728 44.2306 181.668 37.1096 185.672C34.1715 187.321 33.1274 191.05 34.7728 193.996C36.4338 196.942 40.1449 197.993 43.0769 196.341C46.516 194.41 50.6067 194.438 54.0129 196.409L104.211 225.468C109.483 228.52 111.297 235.299 108.254 240.583C105.212 245.867 98.4518 247.691 93.1735 244.636V244.636Z" fill="#FFCC4D"/>
<path d="M584.898 251.815C586.652 248.771 587.574 245.495 587.856 242.196C594.846 211.328 555.845 191.313 502.673 158.845C493.782 153.419 505.085 145.73 521.744 124.136C532.58 110.092 536.26 81.0292 519.791 71.5009C492.638 55.7904 506.387 92.3791 451.782 131.596C422.606 152.549 403.089 120.064 386.668 148.567L349.289 213.447C342.897 224.542 337.839 235.835 352.391 246.595C366.497 257.024 356.893 265.842 378.656 278.433L487.584 341.457C498.679 347.876 512.921 344.043 519.33 332.918C521.988 328.306 522.796 323.172 522.154 318.265C530.302 318.372 538.287 314.292 542.646 306.726C545.296 302.126 546.111 296.996 545.471 292.098C553.635 292.221 561.635 288.142 566.001 280.564C569.171 275.062 569.823 268.789 568.346 263.068C575.046 262.014 581.25 258.147 584.898 251.815V251.815Z" fill="white"/>
<path d="M501.22 230.3L553.16 260.351C560.223 264.438 569.034 264.484 576.156 260.477C579.088 258.825 580.134 255.096 578.484 252.148C576.84 249.203 573.113 248.169 570.175 249.818C566.796 251.729 562.607 251.694 559.257 249.755L506.073 218.984C500.803 215.935 498.992 209.158 502.037 203.873C505.081 198.589 511.843 196.772 517.113 199.821L552.651 220.383C555.567 222.07 559.301 221.066 560.985 218.143C562.669 215.219 561.67 211.477 558.754 209.79L523.209 189.225C512.114 182.805 497.876 186.633 491.466 197.758C487.892 203.962 487.596 211.111 489.869 217.365C484.047 218.879 478.806 222.625 475.569 228.242C471.985 234.465 471.697 241.642 473.997 247.904C468.203 249.426 462.996 253.168 459.767 258.773C455.861 265.553 455.79 273.485 458.812 280.116C453.595 281.851 448.94 285.348 445.983 290.481C439.573 301.606 443.385 315.876 454.481 322.296L487.586 341.45C494.649 345.537 503.463 345.593 510.585 341.586C513.523 339.937 514.569 336.208 512.925 333.263C511.268 330.327 507.555 329.269 504.623 330.922C501.232 332.826 497.039 332.796 493.689 330.858L460.583 311.704C455.313 308.654 453.503 301.877 456.547 296.593C459.592 291.309 466.354 289.491 471.624 292.54L510.899 315.264C517.962 319.351 526.785 319.404 533.901 315.394C536.843 313.739 537.888 310.01 536.241 307.071C534.587 304.089 530.865 303.073 527.939 304.73C524.496 306.668 520.406 306.642 517.001 304.672L474.364 280.002C469.094 276.953 467.287 270.17 470.331 264.886C473.375 259.602 480.137 257.784 485.407 260.833L534.251 289.093C541.314 293.18 550.128 293.235 557.25 289.229C560.188 287.58 561.233 283.851 559.589 280.906C557.93 277.961 554.22 276.912 551.288 278.564C547.848 280.497 543.758 280.471 540.354 278.501L490.176 249.469C484.906 246.42 483.096 239.642 486.14 234.358C489.184 229.074 495.944 227.247 501.22 230.3V230.3Z" fill="#FFCC4D"/>
<path d="M216.37 239.326C260.775 239.326 296.772 203.241 296.772 158.727C296.772 114.214 260.775 78.1286 216.37 78.1286C171.964 78.1286 135.967 114.214 135.967 158.727C135.967 203.241 171.964 239.326 216.37 239.326Z" fill="black"/>
<path d="M396.094 239.326C440.499 239.326 476.497 203.241 476.497 158.727C476.497 114.214 440.499 78.1286 396.094 78.1286C351.689 78.1286 315.691 114.214 315.691 158.727C315.691 203.241 351.689 239.326 396.094 239.326Z" fill="black"/>
<path d="M267.562 124.155C255.606 108.785 237.018 98.8661 216.076 98.8661C180.008 98.8661 150.751 128.195 150.751 164.35C150.751 190.645 166.245 213.25 188.55 223.671C195.256 183.893 226.226 141.441 267.562 124.155V124.155ZM396.386 98.8756C375.444 98.8756 356.847 108.794 344.9 124.165C386.227 141.451 417.196 183.903 423.922 223.69C446.217 213.269 461.721 190.664 461.721 164.369C461.721 128.195 432.463 98.8756 396.386 98.8756V98.8756Z" fill="black"/>
<path d="M457.578 282.878C438.66 187.629 350.378 221.244 306.232 221.244C262.086 221.244 173.804 187.62 154.885 282.878C142.636 344.551 190.773 376.553 240.32 390.852C255.928 402.534 279.652 410.006 306.232 410.006C332.812 410.006 356.536 402.534 372.153 390.843C421.69 376.544 469.828 344.551 457.578 282.878Z" fill="black"/>
<path d="M425.417 239.326C425.417 343.631 372.057 296.22 306.231 296.22C240.405 296.22 187.046 343.631 187.046 239.326C187.046 184.339 240.405 116.057 306.231 116.057C372.057 116.057 425.417 184.339 425.417 239.326Z" fill="black"/>
<path d="M333.711 333.731C333.711 348.941 314.679 365.516 306.232 365.516C297.775 365.516 278.753 348.941 278.753 333.731C278.753 318.512 295.656 315.184 306.232 315.184C316.798 315.184 333.711 318.512 333.711 333.731Z" fill="black"/>
<path d="M471.909 355.986C422.295 326.155 355.041 335.362 352.194 335.761C352.061 335.78 351.976 335.865 351.844 335.884C351.077 336.026 350.396 336.339 349.687 336.652C349.252 336.851 348.807 336.984 348.419 337.24C347.842 337.61 347.407 338.112 346.925 338.605C346.537 338.994 346.13 339.326 345.818 339.772C345.478 340.265 345.288 340.824 345.042 341.384C344.787 341.971 344.494 342.531 344.371 343.176C344.333 343.327 344.229 343.441 344.201 343.602C344.115 344.124 344.257 344.598 344.257 345.11C344.248 345.575 344.106 346.011 344.172 346.494C344.191 346.646 344.286 346.751 344.314 346.893C344.437 347.547 344.702 348.125 344.948 348.723C345.175 349.292 345.364 349.861 345.695 350.363C345.96 350.78 346.329 351.084 346.651 351.454C347.152 352.004 347.634 352.535 348.24 352.952C348.599 353.198 349.025 353.341 349.422 353.54C350.122 353.881 350.803 354.204 351.588 354.365C351.73 354.393 351.834 354.488 351.976 354.516C352.506 354.611 405.288 363.781 431.092 398.258C432.946 400.752 435.784 402.051 438.669 402.051C440.646 402.051 442.633 401.434 444.335 400.154C448.516 397.016 449.367 391.07 446.227 386.889C435.746 372.865 421.889 362.557 408.154 354.943C425.937 357.238 445.442 362.197 462.175 372.258C463.698 373.177 465.382 373.614 467.037 373.614C470.253 373.614 473.384 371.973 475.153 369.015C477.84 364.501 476.383 358.679 471.909 355.986V355.986ZM266.777 350.335C267.099 349.842 267.279 349.282 267.506 348.732C267.752 348.125 268.026 347.556 268.149 346.902C268.177 346.751 268.272 346.637 268.3 346.485C268.367 345.982 268.225 345.508 268.215 345.025C268.215 344.541 268.348 344.077 268.263 343.593C268.244 343.441 268.14 343.337 268.111 343.185C267.969 342.531 267.686 341.943 267.411 341.346C267.175 340.805 266.986 340.255 266.654 339.781C266.352 339.335 265.945 339.004 265.567 338.615C265.084 338.112 264.63 337.619 264.053 337.23C263.675 336.993 263.23 336.861 262.814 336.661C262.105 336.339 261.414 336.036 260.638 335.893C260.506 335.865 260.411 335.78 260.279 335.761C257.432 335.362 190.168 326.146 140.564 355.986C136.08 358.679 134.633 364.501 137.319 368.996C139.098 371.954 142.229 373.595 145.435 373.595C147.091 373.595 148.774 373.158 150.297 372.239C167.021 362.178 186.526 357.228 204.3 354.934C190.574 362.538 176.726 372.855 166.246 386.87C163.105 391.051 163.956 396.997 168.137 400.135C169.84 401.415 171.836 402.032 173.803 402.032C176.679 402.032 179.517 400.723 181.38 398.239C207.081 363.894 259.986 354.583 260.515 354.497C260.657 354.469 260.752 354.384 260.894 354.346C261.622 354.194 262.256 353.881 262.918 353.568C263.372 353.36 263.855 353.198 264.261 352.914C264.819 352.535 265.245 352.032 265.699 351.549C266.068 351.15 266.475 350.799 266.777 350.335V350.335Z" fill="black"/>
<path d="M230.559 258.291C230.559 258.291 230.559 239.326 249.477 239.326C268.395 239.326 268.395 258.291 268.395 258.291V277.255C268.395 277.255 268.395 296.22 249.477 296.22C230.559 296.22 230.559 277.255 230.559 277.255V258.291ZM344.068 258.291C344.068 258.291 344.068 239.326 362.987 239.326C381.905 239.326 381.905 258.291 381.905 258.291V277.255C381.905 277.255 381.905 296.22 362.987 296.22C344.068 296.22 344.068 277.255 344.068 277.255V258.291Z" fill="black"/>
<path d="M221.391 239.591C263.315 239.591 297.301 205.522 297.301 163.496C297.301 121.47 263.315 87.4012 221.391 87.4012C179.467 87.4012 145.481 121.47 145.481 163.496C145.481 205.522 179.467 239.591 221.391 239.591Z" fill="#EAB32C"/>
<path d="M391.073 239.591C432.997 239.591 466.983 205.522 466.983 163.496C466.983 121.47 432.997 87.4012 391.073 87.4012C349.149 87.4012 315.163 121.47 315.163 163.496C315.163 205.522 349.149 239.591 391.073 239.591Z" fill="#EAB32C"/>
<path d="M269.723 130.856C258.435 116.344 240.886 106.98 221.114 106.98C187.062 106.98 159.439 134.67 159.439 168.805C159.439 193.63 174.068 214.972 195.126 224.811C201.458 187.256 230.697 147.176 269.723 130.856V130.856ZM391.349 106.989C371.576 106.989 354.019 116.353 342.74 130.865C381.757 147.185 410.996 187.265 417.346 224.829C438.395 214.99 453.032 193.648 453.032 168.823C453.032 134.67 425.41 106.989 391.349 106.989V106.989Z" fill="#EA596E"/>
<path d="M449.121 280.709C431.26 190.783 347.911 222.519 306.232 222.519C264.553 222.519 181.204 190.774 163.343 280.709C151.778 338.936 197.226 369.15 244.004 382.65C258.739 393.679 281.137 400.734 306.232 400.734C331.327 400.734 353.725 393.679 368.469 382.641C415.239 369.141 460.687 338.936 449.121 280.709Z" fill="white"/>
<path d="M418.757 239.591C418.757 338.067 368.379 293.305 306.231 293.305C244.083 293.305 193.706 338.067 193.706 239.591C193.706 187.677 244.083 123.211 306.231 123.211C368.379 123.211 418.757 187.677 418.757 239.591Z" fill="#FFC944"/>
<path d="M332.176 328.721C332.176 343.081 314.207 358.729 306.232 358.729C298.248 358.729 280.289 343.081 280.289 328.721C280.289 314.352 296.248 311.21 306.232 311.21C316.208 311.21 332.176 314.352 332.176 328.721Z" fill="#EA596E"/>
<path d="M462.651 349.732C415.81 321.568 352.314 330.261 349.626 330.637C349.501 330.655 349.42 330.735 349.295 330.753C348.572 330.887 347.929 331.183 347.259 331.478C346.848 331.666 346.429 331.792 346.062 332.033C345.518 332.383 345.107 332.857 344.651 333.322C344.285 333.69 343.901 334.003 343.606 334.424C343.285 334.889 343.106 335.417 342.874 335.946C342.633 336.501 342.356 337.029 342.24 337.638C342.204 337.781 342.106 337.888 342.079 338.04C341.999 338.533 342.133 338.98 342.133 339.464C342.124 339.902 341.99 340.314 342.053 340.771C342.07 340.914 342.16 341.013 342.187 341.147C342.303 341.765 342.553 342.311 342.785 342.875C342.999 343.412 343.178 343.949 343.49 344.423C343.74 344.817 344.089 345.104 344.392 345.453C344.866 345.972 345.321 346.474 345.893 346.867C346.232 347.1 346.634 347.234 347.009 347.422C347.67 347.745 348.313 348.049 349.054 348.201C349.188 348.228 349.286 348.318 349.42 348.345C349.92 348.434 399.753 357.091 424.116 389.642C425.866 391.996 428.545 393.223 431.269 393.223C433.136 393.223 435.011 392.641 436.618 391.432C440.566 388.469 441.37 382.856 438.405 378.908C428.509 365.667 415.426 355.936 402.459 348.747C419.248 350.914 437.663 355.596 453.462 365.094C454.899 365.963 456.489 366.375 458.052 366.375C461.088 366.375 464.044 364.826 465.714 362.033C468.251 357.771 466.875 352.275 462.651 349.732V349.732ZM268.983 344.397C269.286 343.931 269.456 343.403 269.67 342.884C269.902 342.311 270.161 341.774 270.278 341.156C270.304 341.013 270.394 340.905 270.42 340.762C270.483 340.287 270.349 339.84 270.34 339.383C270.34 338.927 270.465 338.488 270.385 338.031C270.367 337.888 270.269 337.79 270.242 337.646C270.108 337.029 269.84 336.474 269.581 335.91C269.358 335.399 269.179 334.88 268.866 334.433C268.581 334.012 268.197 333.699 267.839 333.331C267.384 332.857 266.955 332.391 266.411 332.024C266.053 331.801 265.634 331.675 265.241 331.487C264.571 331.183 263.919 330.896 263.187 330.762C263.062 330.735 262.972 330.655 262.847 330.637C260.159 330.261 196.654 321.559 149.822 349.732C145.589 352.275 144.222 357.771 146.759 362.015C148.438 364.808 151.394 366.357 154.421 366.357C155.984 366.357 157.574 365.945 159.011 365.076C174.801 355.578 193.216 350.905 209.996 348.738C197.038 355.918 183.963 365.658 174.068 378.89C171.103 382.838 171.907 388.451 175.854 391.414C177.462 392.623 179.346 393.205 181.204 393.205C183.919 393.205 186.598 391.969 188.357 389.624C212.622 357.198 262.57 348.407 263.071 348.327C263.204 348.3 263.294 348.219 263.428 348.183C264.115 348.04 264.714 347.745 265.339 347.449C265.768 347.252 266.223 347.1 266.607 346.832C267.134 346.474 267.536 345.999 267.964 345.542C268.313 345.166 268.697 344.835 268.983 344.397V344.397Z" fill="#C1694F"/>
<path d="M234.787 257.496C234.787 257.496 234.787 239.591 252.648 239.591C270.509 239.591 270.509 257.496 270.509 257.496V275.401C270.509 275.401 270.509 293.305 252.648 293.305C234.787 293.305 234.787 275.401 234.787 275.401V257.496ZM341.954 257.496C341.954 257.496 341.954 239.591 359.815 239.591C377.676 239.591 377.676 257.496 377.676 257.496V275.401C377.676 275.401 377.676 293.305 359.815 293.305C341.954 293.305 341.954 275.401 341.954 275.401V257.496Z" fill="#272B2B"/>
<path d="M311.475 113.899L300.586 91.2221L288.775 108.913L311.475 113.899Z" fill="black"/>
<path d="M324.291 92.0211L305.396 114.378L332.126 120.249L324.291 92.0211Z" fill="black"/>
<path d="M327.059 117.322L346.41 101.287L349.759 122.308L327.059 117.322Z" fill="black"/>
<path d="M341.837 116.534L337.304 90.5767L320.122 111.767L320.107 111.77L320.094 111.759L313.326 85.3079L298.38 106.989C293.942 96.6925 289.247 89.6897 289.247 89.6897C289.247 89.6897 287.079 116.403 281.612 141.412L342.71 154.832C348.176 129.823 357.35 104.648 357.35 104.648C357.35 104.648 350.163 109.041 341.837 116.534V116.534Z" fill="black"/>
<path d="M315.337 133.175C319.485 134.086 323.584 131.454 324.493 127.295C325.402 123.137 322.776 119.028 318.628 118.116C314.48 117.205 310.38 119.838 309.471 123.996C308.563 128.154 311.188 132.264 315.337 133.175Z" fill="#5C913B"/>
<path d="M333.228 134.375C335.941 134.971 338.622 133.249 339.217 130.529C339.811 127.81 338.094 125.122 335.381 124.526C332.668 123.93 329.987 125.652 329.392 128.372C328.798 131.091 330.515 133.779 333.228 134.375Z" fill="black"/>
<path d="M346.43 136.363C348.664 136.854 350.872 135.436 351.361 133.197C351.851 130.958 350.437 128.745 348.203 128.254C345.969 127.763 343.761 129.181 343.272 131.42C342.783 133.659 344.197 135.872 346.43 136.363Z" fill="#DD2E44"/>
<path d="M298.58 126.764C301.293 127.36 303.974 125.639 304.568 122.919C305.163 120.2 303.445 117.512 300.733 116.916C298.02 116.32 295.338 118.042 294.744 120.761C294.15 123.481 295.867 126.168 298.58 126.764Z" fill="black"/>
<path d="M285.759 123.037C287.992 123.527 290.2 122.11 290.689 119.871C291.179 117.631 289.765 115.418 287.531 114.928C285.297 114.437 283.09 115.855 282.6 118.094C282.111 120.333 283.525 122.546 285.759 123.037Z" fill="#DD2E44"/>
<path d="M342.263 156.873L281.166 143.453C280.041 143.206 279.329 142.093 279.575 140.965C279.822 139.836 280.934 139.123 282.058 139.37L343.155 152.79C344.281 153.037 344.992 154.15 344.746 155.279C344.499 156.408 343.389 157.12 342.263 156.873ZM343.818 149.756L282.721 136.337C281.597 136.09 280.884 134.977 281.131 133.848C281.378 132.719 282.49 132.007 283.614 132.254L344.711 145.673C345.837 145.921 346.548 147.033 346.301 148.162C346.054 149.291 344.945 150.004 343.818 149.756Z" fill="#FFAC33"/>
<path d="M288.958 92.6369C290.541 92.9845 292.105 91.9802 292.452 90.3938C292.798 88.8074 291.797 87.2396 290.214 86.892C288.632 86.5444 287.068 87.5487 286.721 89.1351C286.374 90.7215 287.376 92.2893 288.958 92.6369Z" fill="black"/>
<path d="M300.054 93.6555C301.395 93.95 302.72 93.0992 303.014 91.7552C303.307 90.4112 302.459 89.083 301.118 88.7885C299.777 88.494 298.452 89.3448 298.159 90.6888C297.865 92.0328 298.713 93.361 300.054 93.6555Z" fill="black"/>
<path d="M312.529 88.9521C314.536 89.3928 316.519 88.1195 316.959 86.108C317.398 84.0965 316.128 82.1086 314.122 81.6679C312.115 81.2271 310.132 82.5005 309.692 84.512C309.253 86.5234 310.523 88.5113 312.529 88.9521Z" fill="black"/>
<path d="M356.381 107.446C357.964 107.794 359.528 106.789 359.875 105.203C360.221 103.617 359.219 102.049 357.637 101.701C356.054 101.354 354.49 102.358 354.144 103.944C353.797 105.531 354.799 107.098 356.381 107.446Z" fill="black"/>
<path d="M345.877 103.72C347.218 104.015 348.543 103.164 348.837 101.82C349.131 100.476 348.282 99.1478 346.941 98.8533C345.601 98.5589 344.276 99.4097 343.982 100.754C343.688 102.098 344.537 103.426 345.877 103.72Z" fill="black"/>
<path d="M336.508 94.2188C338.514 94.6596 340.498 93.3862 340.937 91.3747C341.377 89.3633 340.107 87.3753 338.1 86.9346C336.093 86.4939 334.11 87.7672 333.671 89.7787C333.231 91.7902 334.501 93.7781 336.508 94.2188Z" fill="black"/>
<path d="M323.494 95.6633C325.501 96.104 327.484 94.8307 327.924 92.8192C328.363 90.8077 327.093 88.8198 325.086 88.3791C323.08 87.9383 321.097 89.2117 320.657 91.2231C320.217 93.2346 321.488 95.2225 323.494 95.6633Z" fill="black"/>
<path d="M312.117 114.187L302.17 93.4711L291.38 109.633L312.117 114.187Z" fill="#F4900C"/>
<path d="M323.825 94.201L306.564 114.625L330.983 119.989L323.825 94.201Z" fill="#F4900C"/>
<path d="M326.354 117.314L344.031 102.666L347.091 121.869L326.354 117.314Z" fill="#F4900C"/>
<path d="M339.854 116.595L335.713 92.8815L320.017 112.24L320.003 112.243L319.991 112.232L313.808 88.0682L300.155 107.875C296.1 98.4686 291.811 92.0712 291.811 92.0712C291.811 92.0712 289.83 116.475 284.836 139.322L340.651 151.581C345.645 128.734 354.026 105.737 354.026 105.737C354.026 105.737 347.461 109.75 339.854 116.595V116.595Z" fill="#FDBC1B"/>
<path d="M315.645 131.797C319.434 132.629 323.179 130.224 324.01 126.426C324.84 122.627 322.441 118.873 318.652 118.04C314.862 117.208 311.117 119.613 310.287 123.411C309.456 127.21 311.855 130.964 315.645 131.797Z" fill="#5C913B"/>
<path d="M331.99 132.893C334.468 133.437 336.917 131.865 337.461 129.38C338.004 126.896 336.435 124.44 333.956 123.896C331.478 123.352 329.029 124.924 328.485 127.409C327.942 129.893 329.511 132.349 331.99 132.893Z" fill="#981CEB"/>
<path d="M344.05 134.709C346.091 135.158 348.108 133.863 348.555 131.817C349.002 129.771 347.71 127.75 345.67 127.301C343.629 126.853 341.612 128.148 341.165 130.194C340.718 132.239 342.01 134.261 344.05 134.709Z" fill="#DD2E44"/>
<path d="M300.337 125.94C302.816 126.485 305.265 124.912 305.808 122.428C306.351 119.943 304.782 117.488 302.304 116.944C299.826 116.399 297.376 117.972 296.833 120.456C296.29 122.941 297.859 125.396 300.337 125.94Z" fill="#981CEB"/>
<path d="M288.625 122.535C290.665 122.983 292.682 121.688 293.129 119.643C293.576 117.597 292.284 115.575 290.244 115.127C288.203 114.679 286.186 115.974 285.739 118.02C285.292 120.065 286.584 122.087 288.625 122.535Z" fill="#DD2E44"/>
<path d="M340.244 153.446L284.429 141.187C283.402 140.961 282.751 139.944 282.976 138.913C283.201 137.882 284.217 137.231 285.244 137.457L341.059 149.716C342.088 149.942 342.737 150.958 342.512 151.99C342.286 153.021 341.273 153.672 340.244 153.446ZM341.665 146.945L285.85 134.685C284.823 134.46 284.172 133.443 284.397 132.411C284.622 131.38 285.638 130.73 286.665 130.955L342.48 143.215C343.509 143.441 344.158 144.457 343.933 145.488C343.707 146.52 342.694 147.171 341.665 146.945Z" fill="#FFAC33"/>
<path d="M291.548 94.7636C292.993 95.0811 294.422 94.1637 294.739 92.7145C295.056 91.2652 294.141 89.8329 292.695 89.5154C291.249 89.1978 289.82 90.1153 289.504 91.5645C289.187 93.0138 290.102 94.446 291.548 94.7636Z" fill="#FFCC4D"/>
<path d="M301.683 95.6941C302.908 95.9631 304.119 95.1859 304.387 93.9581C304.655 92.7303 303.88 91.5169 302.655 91.2479C301.43 90.9789 300.22 91.7561 299.952 92.9839C299.683 94.2117 300.459 95.4251 301.683 95.6941Z" fill="#F4900C"/>
<path d="M313.079 91.3974C314.913 91.8 316.724 90.6368 317.126 88.7992C317.527 86.9616 316.367 85.1456 314.534 84.7429C312.701 84.3403 310.889 85.5035 310.488 87.3411C310.086 89.1787 311.246 90.9947 313.079 91.3974Z" fill="#FFCC4D"/>
<path d="M353.141 108.292C354.587 108.61 356.016 107.692 356.333 106.243C356.65 104.794 355.734 103.362 354.289 103.044C352.843 102.727 351.414 103.644 351.097 105.093C350.781 106.543 351.696 107.975 353.141 108.292Z" fill="#FFCC4D"/>
<path d="M343.545 104.889C344.769 105.158 345.98 104.381 346.248 103.153C346.517 101.925 345.741 100.712 344.517 100.443C343.292 100.174 342.081 100.951 341.813 102.179C341.545 103.406 342.32 104.62 343.545 104.889Z" fill="#F4900C"/>
<path d="M334.986 96.2087C336.819 96.6114 338.63 95.4481 339.032 93.6106C339.434 91.773 338.273 89.9569 336.44 89.5543C334.607 89.1517 332.795 90.3149 332.394 92.1525C331.992 93.9901 333.153 95.8061 334.986 96.2087Z" fill="#FFCC4D"/>
<path d="M323.098 97.5283C324.931 97.9309 326.743 96.7677 327.144 94.9301C327.546 93.0925 326.386 91.2765 324.553 90.8738C322.719 90.4712 320.908 91.6345 320.506 93.472C320.104 95.3096 321.265 97.1257 323.098 97.5283Z" fill="#F4900C"/>
</g>
<defs>
<clipPath id="clip0">
<rect width="594" height="498" fill="white"/>
</clipPath>
</defs>
</svg>
